<?xml version="1.0" encoding="UTF-8"?>
<svg version="1.1" xmlns="http://www.w3.org/2000/svg" width="512" height="512">
<path d="M0 0 C-0.4776026 5.01792861 -1.40239501 8.25093494 -4.1875 12.4375 C-4.92376476 13.57867616 -5.65654705 14.72210318 -6.38671875 15.8671875 C-6.79970215 16.51268555 -7.21268555 17.15818359 -7.63818359 17.82324219 C-10.36091551 22.17531779 -12.92064123 26.62450157 -15.5 31.0625 C-16.09449951 32.08480713 -16.68899902 33.10711426 -17.30151367 34.16040039 C-19.20435691 37.4383403 -21.10290431 40.71873062 -23 44 C-23.65097656 45.12486816 -24.30195313 46.24973633 -24.97265625 47.40869141 C-33.45562856 62.08996076 -41.71250731 76.8669282 -49.6953125 91.828125 C-52.30218228 96.71315243 -54.95690842 101.56950017 -57.63232422 106.41723633 C-62.80846683 115.80693174 -67.73846621 125.29229514 -72.46533203 134.91650391 C-75.45308709 140.98353085 -78.56228488 146.97523654 -81.73046875 152.94921875 C-87.08892326 163.07507034 -92.17164319 173.32592603 -97.1875 183.625 C-97.86607056 185.01564667 -97.86607056 185.01564667 -98.55834961 186.43438721 C-106.43119958 202.58407958 -114.00417278 218.85003241 -121.32519531 235.25634766 C-122.93857784 238.86924629 -124.5731193 242.47232575 -126.2109375 246.07421875 C-148.95428657 296.20778466 -169.61867487 347.32324468 -187.9921875 399.21875 C-188.32381393 400.15413605 -188.65544037 401.08952209 -188.99711609 402.05325317 C-190.58542027 406.537851 -192.16467145 411.02526199 -193.72680664 415.51904297 C-196.60149871 423.72954864 -199.65348456 431.8067782 -203.171875 439.765625 C-203.48998642 440.48680511 -203.80809784 441.20798523 -204.135849 441.95101929 C-212.717448 460.92488195 -226.2006769 477.35229949 -246.00390625 484.99609375 C-258.3945808 489.14785823 -271.1382541 489.21175009 -283.125 483.6328125 C-298.98205018 474.62704215 -308.70091504 458.51095867 -319 444 C-319.51498047 443.27441895 -320.02996094 442.54883789 -320.56054688 441.80126953 C-323.55475948 437.57680934 -326.53759028 433.3444191 -329.51611328 429.10888672 C-332.00648786 425.56958833 -334.50359792 422.03504816 -337 418.5 C-338.00003195 417.08335588 -339.00003196 415.66668922 -340 414.25 C-340.495 413.54875 -340.99 412.8475 -341.5 412.125 C-346 405.75 -346 405.75 -347.49975586 403.62524414 C-348.50044188 402.20767346 -349.50125583 400.79019308 -350.50219727 399.37280273 C-352.99275451 395.84569428 -355.48111592 392.31707783 -357.96484375 388.78515625 C-363.07232141 381.5276481 -368.22049766 374.30423914 -373.4375 367.125 C-378.52815243 360.11353369 -383.46182464 353.00674078 -388.32470703 345.83569336 C-391.17233919 341.6430813 -394.06569981 337.49749348 -397.05737305 333.40649414 C-410.20425758 315.40081159 -417.59831279 298.55501404 -416 276 C-414.1041488 263.93316332 -406.91733611 252.2333021 -397.3671875 244.5625 C-383.90275756 235.6750875 -370.88236627 233.14157208 -355 236.125 C-331.6971152 241.67574204 -314.18106744 260.67533341 -300.33398438 279.21728516 C-299.01280209 280.98289149 -297.67193269 282.73204743 -296.328125 284.48046875 C-286.10295317 297.93678746 -277.43676475 312.45613568 -269.1875 327.1875 C-268.76073975 327.94780518 -268.33397949 328.70811035 -267.89428711 329.49145508 C-265 334.74877249 -265 334.74877249 -265 337 C-264.34 337 -263.68 337 -263 337 C-262.63777344 335.78699219 -262.27554688 334.57398438 -261.90234375 333.32421875 C-259.74066873 326.85686062 -256.64256317 320.88225672 -253.5625 314.8125 C-252.93580465 313.56847488 -252.30917802 312.32441514 -251.68261719 311.08032227 C-246.91041779 301.64102085 -241.9089246 292.33733049 -236.7890625 283.08203125 C-234.57033491 279.06505461 -232.42977509 275.01418012 -230.32177734 270.93823242 C-225.05048303 260.74942915 -219.3262349 250.85902332 -213.50390625 240.9765625 C-210.78915597 236.36526677 -208.13432426 231.72422621 -205.5078125 227.06225586 C-198.39814837 214.45821447 -190.74935687 202.21838418 -183 190 C-181.73824865 188.00392685 -180.47652955 186.00783333 -179.21484375 184.01171875 C-173.25487204 174.59870372 -167.26318598 165.21505276 -161 156 C-160.46262207 155.20625977 -159.92524414 154.41251953 -159.37158203 153.59472656 C-130.86228348 111.4940501 -99.5942879 66.42597572 -59 35 C-57.93565052 34.13638898 -56.8732491 33.27037322 -55.8125 32.40234375 C-15.92031167 0 -15.92031167 0 0 0 Z " fill="#000000" transform="translate(464,12)"/>
</svg>
