 <svg
    xmlns="http://www.w3.org/2000/svg"
    width={18}
    height={18}
    viewBox="0 0 18 18"
    fill="none"
  >
    <path
      d="M0 6.22222C0 4.04424 0 2.95525 0.423864 2.12337C0.796704 1.39163 1.39163 0.796704 2.12337 0.423864C2.95525 0 4.04424 0 6.22222 0H11.2778C13.4558 0 14.5448 0 15.3766 0.423864C16.1084 0.796704 16.7033 1.39163 17.0761 2.12337C17.5 2.95525 17.5 4.04424 17.5 6.22222V11.2778C17.5 13.4558 17.5 14.5448 17.0761 15.3766C16.7033 16.1084 16.1084 16.7033 15.3766 17.0761C14.5448 17.5 13.4558 17.5 11.2778 17.5H6.22222C4.04424 17.5 2.95525 17.5 2.12337 17.0761C1.39163 16.7033 0.796704 16.1084 0.423864 15.3766C0 14.5448 0 13.4558 0 11.2778V6.22222Z"
      fill="white"
    />
  </svg>