<svg width="143" height="35" viewBox="0 0 143 35" fill="none" xmlns="http://www.w3.org/2000/svg">
<g clip-path="url(#clip0_1158_7655)">
<path d="M75.8868 14.3001C75.8868 20.1672 74.0113 25.9344 64.5658 25.9344C55.1203 25.9344 53.3992 20.199 53.3992 14.3001C53.3992 8.40116 55.3519 2.62939 64.6839 2.62939C74.0159 2.62939 75.8914 8.36029 75.8914 14.3001H75.8868ZM69.1523 14.2819C69.1523 11.0305 68.6165 8.39662 64.6385 8.39662C60.6604 8.39662 60.0883 11.0305 60.0883 14.2819C60.0883 17.5334 60.7013 19.9992 64.6385 19.9992C68.5756 19.9992 69.1523 17.4789 69.1523 14.2819ZM78.8794 6.37128C81.3907 5.5448 85.2415 4.76372 88.9244 4.76372C94.3238 4.76372 99.5143 6.80723 99.5143 15.0085C99.5143 20.7803 97.1302 25.9208 88.9698 25.9208C88.0934 25.9208 87.0852 25.8436 86.1225 25.6847V32.2511H78.884V6.37128H78.8794ZM86.118 20.5441C86.8309 20.7031 87.4576 20.7803 88.0434 20.7803C90.8907 20.7803 92.2303 18.5415 92.2303 14.9722C92.2303 11.6344 91.0178 9.79075 88.3794 9.79075C87.7528 9.79075 86.9581 9.83162 86.118 10.0269V20.5487V20.5441ZM122.751 24.0771C120.789 24.7492 116.403 25.939 111.671 25.939C106.939 25.939 102.507 24.0771 102.507 18.378V4.81368H109.882V17.9784C109.882 20.3125 111.289 20.9074 112.824 21.0255C113.846 21.0255 114.659 20.9074 115.422 20.7485V4.81368H122.751V24.0771ZM141.511 11.1894C140.203 10.6399 137.278 9.85886 135.403 9.85886C134.136 9.85886 133.046 10.095 133.046 11.0713C133.046 12.243 134.835 12.8333 136.579 13.4191C139.372 14.3954 142.991 15.6897 142.991 19.1273C142.991 23.4686 139.935 25.9344 133.305 25.9344C130.38 25.9344 126.847 25.1897 125.19 24.4495L126.325 19.6404C127.592 20.031 131.211 21.0482 133.436 21.0482C134.703 21.0482 135.707 20.8529 135.707 19.7176C135.707 18.6596 134.136 18.0374 132.61 17.4108C129.427 16.1574 125.762 14.7905 125.762 11.2712C125.762 6.6937 129.381 4.81822 135.053 4.81822C138.282 4.81822 140.639 5.44489 142.555 6.14877L141.506 11.194L141.511 11.1894Z" fill="#304269"/>
<path d="M98.8559 29.2313H99.5098L100.2 31.4473L100.89 29.2313H101.544L100.522 32.1921H99.8731L98.8513 29.2313H98.8559ZM103.152 32.1921H102.493V29.2313H103.152V32.1921ZM104.609 29.2857C104.864 29.2358 105.227 29.1995 105.581 29.1995C106.185 29.1995 106.771 29.3584 106.771 30.194C106.771 30.7117 106.53 31.0068 106.172 31.1204L106.903 32.1921H106.194L105.568 31.1749C105.472 31.1658 105.368 31.1476 105.268 31.1249V32.1875H104.609V29.2812V29.2857ZM105.577 30.7344C105.881 30.7344 106.14 30.6481 106.14 30.2121C106.14 29.7762 105.854 29.6717 105.581 29.6717C105.468 29.6717 105.354 29.6717 105.268 29.699V30.7117C105.368 30.7253 105.477 30.7389 105.577 30.7389V30.7344ZM107.361 29.2313H109.718V29.7399H108.86V32.1921H108.201V29.7399H107.361V29.2313ZM111.476 32.2466C110.64 32.2466 110.313 31.8878 110.313 31.1022V29.2358H110.976V31.0795C110.976 31.47 111.022 31.7152 111.48 31.7152C111.939 31.7152 111.971 31.4973 111.971 31.0795V29.2358H112.634V31.1022C112.634 31.8651 112.352 32.2466 111.467 32.2466H111.476ZM115.726 32.1921L115.495 31.4927H114.518L114.296 32.1921H113.628L114.659 29.2313H115.381L116.376 32.1921H115.726ZM115.013 29.8443L114.673 31.0114H115.345L115.013 29.8443ZM119.282 32.1921H117.384V29.2313H118.042V31.6789H119.277V32.1921H119.282ZM123.523 30.7117C123.523 31.4882 123.31 32.2466 122.224 32.2466C121.139 32.2466 120.944 31.4927 120.944 30.7117C120.944 29.9306 121.166 29.1768 122.238 29.1768C123.31 29.1768 123.523 29.9306 123.523 30.7117ZM122.892 30.7117C122.892 30.1531 122.81 29.6944 122.234 29.6944C121.657 29.6944 121.58 30.1531 121.58 30.7117C121.58 31.2702 121.666 31.7062 122.234 31.7062C122.801 31.7062 122.892 31.2657 122.892 30.7117ZM125.644 29.7399V30.4074H126.866V30.9024H125.644V32.1875H124.985V29.2267H126.984V29.7353H125.644V29.7399ZM128.991 29.7399V30.4074H130.212V30.9024H128.991V32.1875H128.332V29.2267H130.33V29.7353H128.991V29.7399ZM132.328 32.1921H131.67V29.2313H132.328V32.1921ZM135.421 31.7289C135.58 31.7289 135.762 31.7107 135.93 31.6925L135.961 32.183C135.73 32.2239 135.475 32.2511 135.248 32.2511C134.463 32.2511 133.795 31.9287 133.791 30.7026C133.791 29.5355 134.54 29.1768 135.285 29.1768C135.548 29.1768 135.766 29.2222 136.007 29.2903L135.907 29.7671C135.707 29.6944 135.544 29.6581 135.348 29.6581C134.858 29.6581 134.467 29.8988 134.463 30.6844C134.467 31.5381 134.894 31.7198 135.426 31.7198L135.421 31.7289ZM139.508 32.1921H137.464V29.2313H139.508V29.7444H138.118V30.4074H139.385V30.9024H138.118V31.6744H139.508V32.1875V32.1921ZM141.066 31.5381C141.347 31.6608 141.67 31.7516 141.942 31.7516C142.215 31.7516 142.396 31.6562 142.396 31.4019C142.396 31.1476 142.228 31.0522 141.919 30.9387C141.424 30.7616 140.975 30.6072 140.975 30.0123C140.975 29.4174 141.479 29.1768 142.06 29.1768C142.378 29.1768 142.646 29.2449 142.864 29.3175L142.75 29.7989C142.596 29.7308 142.346 29.6672 142.119 29.6672C141.838 29.6672 141.592 29.6944 141.592 30.0078C141.592 30.2803 141.86 30.3347 142.151 30.4392C142.655 30.6118 143.005 30.8842 143.005 31.352C143.005 31.8924 142.578 32.242 141.992 32.242C141.601 32.242 141.202 32.1648 140.966 32.0422L141.061 31.5336L141.066 31.5381Z" fill="#ED1C24"/>
<path d="M30.3255 34.3855C29.549 34.3855 28.8179 34.0132 28.3592 33.3865L18.2916 19.8812C17.4969 18.7959 17.7375 17.27 18.8229 16.4799C19.9082 15.6852 21.434 15.9259 22.2242 17.0112L30.2574 27.7373L35.4388 20.1537C36.1972 19.0411 37.7139 18.7595 38.822 19.5179C39.93 20.2763 40.2161 21.793 39.4577 22.901L32.3327 33.3275C31.8877 33.9814 31.152 34.3765 30.3619 34.3901C30.3482 34.3901 30.3346 34.3901 30.3255 34.3901V34.3855ZM15.8076 28.0961C16.5659 28.0643 17.3016 27.9508 18.0055 27.7646C18.4914 27.6374 18.3778 26.9245 17.8783 26.9608C17.8374 26.9608 17.8011 26.9653 17.7602 26.9699C12.1474 27.2923 7.29295 22.9419 7.00686 17.3291C6.85246 14.3001 8.03315 11.5164 10.0358 9.55013C10.39 9.20501 9.93134 8.64191 9.5181 8.91891C6.61178 10.8625 4.74538 14.2139 4.86345 17.9512C5.04055 23.7275 10.0358 28.364 15.8121 28.1052L15.8076 28.0961Z" fill="#ED1C24"/>
<path d="M38.0728 12.865C36.2155 12.865 34.4762 13.3645 32.9776 14.2364C31.8424 6.18955 24.9308 0 16.5706 0C7.4202 0 0 7.4202 0 16.5706C0 25.7209 7.4202 33.1411 16.5706 33.1411C19.654 33.1411 22.5421 32.2965 25.0125 30.8297L22.8873 27.9824C20.7983 29.4356 18.2599 30.2893 15.517 30.2893C8.37837 30.2893 2.58844 24.4994 2.58844 17.3607C2.58844 10.2221 8.37837 4.43214 15.517 4.43214C22.6557 4.43214 28.4456 10.2221 28.4456 17.3607C28.4456 19.0546 28.1141 20.6712 27.5238 22.1561L30.2121 25.7436L31.3156 24.127C32.1512 22.4967 32.7279 20.7121 32.9867 18.8275C34.0221 17.9829 35.3436 17.4788 36.7831 17.4788C40.1072 17.4788 42.8001 20.1717 42.8001 23.4958C42.8001 26.8199 40.1072 29.5128 36.7831 29.5128C36.6378 29.5128 36.4925 29.5037 36.3517 29.4946L34.34 32.4373C35.4934 32.8959 36.7513 33.1502 38.0682 33.1502C43.6674 33.1502 48.2086 28.6091 48.2086 23.0099C48.2086 17.4107 43.6674 12.8695 38.0682 12.8695L38.0728 12.865Z" fill="#304269"/>
</g>
<defs>
<clipPath id="clip0_1158_7655">
<rect width="143" height="34.3854" fill="white"/>
</clipPath>
</defs>
</svg>
