<svg width="176" height="43" viewBox="0 0 176 43" fill="none" xmlns="http://www.w3.org/2000/svg">
<path d="M37.6852 42.7221C36.721 42.7221 35.8123 42.2621 35.2415 41.4808L22.7352 24.6968C21.7489 23.3447 22.0426 21.4552 23.3946 20.4689C24.7466 19.4826 26.6362 19.7763 27.6225 21.1283L37.6076 34.4547L44.0464 25.0348C44.9884 23.655 46.8724 23.3004 48.2521 24.2424C49.6318 25.1844 49.9865 27.0684 49.0445 28.4481L40.1898 41.4033C39.6356 42.2123 38.7214 42.7054 37.7406 42.7221C37.724 42.7221 37.7073 42.7221 37.6907 42.7221H37.6852ZM19.6433 34.9091C20.5853 34.8647 21.4995 34.7262 22.375 34.499C22.979 34.3439 22.835 33.4573 22.2143 33.4961C22.1645 33.4961 22.1201 33.5016 22.0703 33.5072C15.094 33.9117 9.06526 28.5035 8.70508 21.5273C8.51115 17.7648 9.97954 14.3072 12.4675 11.858C12.9053 11.4258 12.3345 10.7331 11.8247 11.0711C8.21192 13.4871 5.89573 17.654 6.0398 22.2919C6.26145 29.4732 12.4675 35.2305 19.6433 34.9091Z" fill="#ED1C24"/>
<path d="M47.3101 15.9806C44.9995 15.9806 42.8384 16.6012 40.9822 17.6873C39.5692 7.69108 30.986 0 20.5964 0C9.22043 0 0 9.22043 0 20.5908C0 31.9612 9.22043 41.1816 20.5908 41.1816C24.4253 41.1816 28.0104 40.1288 31.0802 38.3058L28.4426 34.765C25.8438 36.5714 22.6909 37.6353 19.2887 37.6353C10.4173 37.6353 3.22494 30.4429 3.22494 21.5716C3.22494 12.7003 10.4173 5.50788 19.2887 5.50788C28.16 5.50788 35.3524 12.7003 35.3524 21.5716C35.3524 23.6772 34.9423 25.6887 34.2054 27.5283L37.5467 31.9834L38.9153 29.9775C39.9571 27.955 40.6719 25.733 40.9932 23.3891C42.2788 22.3418 43.919 21.7101 45.7087 21.7101C49.8369 21.7101 53.1837 25.057 53.1837 29.1851C53.1837 33.3132 49.8369 36.6601 45.7087 36.6601C45.5259 36.6601 45.3486 36.649 45.1713 36.6379L42.6722 40.2895C44.1074 40.8603 45.67 41.1706 47.3046 41.1706C54.2642 41.1706 59.9051 35.5297 59.9051 28.57C59.9051 21.6104 54.2642 15.9695 47.3046 15.9695L47.3101 15.9806Z" fill="#0086C9"/>
<path d="M109.396 35.1085H108.492L108.62 34.571H111.047L110.919 35.1085H110.005L109.263 38.3334H108.642L109.39 35.1085H109.396ZM111.69 34.4435H112.288L111.945 35.9396C112.1 35.7623 112.416 35.5296 112.715 35.5296C113.186 35.5296 113.374 35.851 113.374 36.2666C113.374 36.4771 113.302 36.793 113.263 36.9758L112.947 38.3389H112.349L112.648 37.0146C112.687 36.8595 112.754 36.5658 112.754 36.4106C112.754 36.1834 112.693 36.056 112.465 36.056C112.283 36.056 111.983 36.3109 111.806 36.5048L111.385 38.3389H110.786L111.684 34.4491L111.69 34.4435ZM113.978 37.5078C113.978 36.527 114.416 35.5351 115.474 35.5351C116.023 35.5351 116.377 35.7512 116.377 36.2887C116.377 36.9924 115.89 37.1919 114.848 37.1919H114.615C114.593 37.275 114.582 37.3969 114.582 37.4911C114.582 37.7571 114.776 37.8846 115.031 37.8846C115.319 37.8846 115.718 37.8347 115.945 37.7904L115.879 38.2447C115.663 38.3112 115.242 38.3999 114.87 38.3999C114.283 38.3999 113.978 38.1173 113.978 37.5078ZM114.942 36.7375C115.541 36.7375 115.779 36.6267 115.779 36.2998C115.779 36.0948 115.657 36.0172 115.441 36.0172C115.042 36.0172 114.798 36.2887 114.682 36.7375H114.942ZM118.328 37.5743C118.328 37.3969 118.361 37.1808 118.394 37.0146L118.96 34.5765H119.575L118.993 37.1033C118.965 37.2252 118.943 37.3582 118.943 37.4801C118.943 37.7737 119.159 37.8569 119.497 37.8569C120.024 37.8569 120.201 37.613 120.317 37.1088L120.905 34.571H121.52L120.932 37.1143C120.727 37.9954 120.306 38.3943 119.442 38.3943C118.771 38.3943 118.328 38.1395 118.328 37.5687V37.5743ZM122.5 34.4435H123.099L122.201 38.3334H121.603L122.5 34.4435ZM123.359 37.8347C123.359 37.6574 123.398 37.4524 123.442 37.2695L123.719 36.1003H123.393L123.531 35.5905H123.847L124.019 34.8369H124.617L124.44 35.5905H125.099L124.972 36.1003H124.318L124.035 37.3194C124.008 37.4357 123.98 37.5964 123.98 37.6906C123.98 37.8181 124.041 37.8901 124.19 37.8901C124.296 37.8901 124.479 37.8735 124.584 37.8569L124.534 38.2946C124.407 38.3389 124.163 38.3999 123.958 38.3999C123.57 38.3999 123.359 38.1616 123.359 37.8402V37.8347ZM125.77 35.5905H126.368L125.736 38.3389H125.138L125.77 35.5905ZM126.008 34.5377H126.612L126.468 35.1805H125.858L126.008 34.5377ZM127.299 35.5905H127.87L127.814 35.9396C127.969 35.7623 128.285 35.5296 128.607 35.5296C128.967 35.5296 129.155 35.7734 129.189 35.9563C129.382 35.7679 129.748 35.5296 130.07 35.5296C130.546 35.5296 130.723 35.851 130.723 36.2666C130.723 36.4827 130.657 36.793 130.618 36.9758L130.302 38.3389H129.704L130.02 37.0146C130.058 36.8595 130.119 36.5713 130.119 36.4272C130.119 36.1834 130.047 36.056 129.848 36.056C129.648 36.056 129.377 36.2776 129.216 36.4439C129.205 36.5769 129.172 36.804 129.133 36.9758L128.817 38.3389H128.219L128.518 37.0146C128.557 36.8595 128.618 36.5602 128.618 36.4106C128.618 36.1834 128.546 36.056 128.33 36.056C128.147 36.056 127.853 36.3109 127.681 36.5048L127.26 38.3389H126.662L127.293 35.5905H127.299ZM131.322 37.4745C131.322 36.6821 131.737 35.5296 132.713 35.5296C132.99 35.5296 133.599 35.6238 133.982 35.6903L133.572 37.469C133.511 37.7239 133.45 38.1062 133.416 38.3279L132.824 38.35C132.851 38.1782 132.89 37.9289 132.912 37.8513C132.735 38.0896 132.397 38.3999 132.064 38.3999C131.538 38.3999 131.322 38.0231 131.322 37.4745ZM133.017 37.2972L133.295 36.1169C133.139 36.0837 132.873 36.0394 132.735 36.0394C132.208 36.0394 131.937 36.8982 131.937 37.4745C131.937 37.735 132.009 37.8846 132.275 37.8846C132.474 37.8846 132.818 37.5521 133.023 37.2972H133.017ZM134.53 37.8347C134.53 37.6574 134.569 37.4524 134.613 37.2695L134.89 36.1003H134.563L134.702 35.5905H135.018L135.19 34.8369H135.788L135.611 35.5905H136.27L136.143 36.1003H135.489L135.206 37.3194C135.178 37.4357 135.151 37.5964 135.151 37.6906C135.151 37.8181 135.212 37.8901 135.361 37.8901C135.467 37.8901 135.649 37.8735 135.755 37.8569L135.705 38.2946C135.577 38.3389 135.334 38.3999 135.129 38.3999C134.741 38.3999 134.53 38.1616 134.53 37.8402V37.8347ZM136.425 37.5078C136.425 36.527 136.863 35.5351 137.921 35.5351C138.47 35.5351 138.825 35.7512 138.825 36.2887C138.825 36.9924 138.337 37.1919 137.295 37.1919H137.062C137.04 37.275 137.029 37.3969 137.029 37.4911C137.029 37.7571 137.223 37.8846 137.478 37.8846C137.766 37.8846 138.165 37.8347 138.392 37.7904L138.326 38.2447C138.11 38.3112 137.689 38.3999 137.317 38.3999C136.73 38.3999 136.425 38.1173 136.425 37.5078ZM137.395 36.7375C137.993 36.7375 138.232 36.6267 138.232 36.2998C138.232 36.0948 138.11 36.0172 137.894 36.0172C137.495 36.0172 137.251 36.2887 137.134 36.7375H137.395ZM140.769 37.2584C140.769 36.3497 141.058 35.4021 141.639 34.8924C141.916 34.643 142.266 34.5156 142.676 34.5156C143.424 34.5156 143.873 34.8536 143.873 35.6515C143.873 36.5935 143.59 37.5743 142.969 38.073C142.698 38.2835 142.332 38.3999 141.95 38.3999C141.191 38.3999 140.775 38.0619 140.775 37.264L140.769 37.2584ZM142.581 37.6574C143.008 37.2695 143.241 36.3885 143.241 35.7069C143.241 35.247 143.064 35.053 142.609 35.053C142.415 35.053 142.238 35.1085 142.099 35.2359C141.645 35.6404 141.412 36.5879 141.412 37.2085C141.412 37.6795 141.578 37.8624 142.044 37.8624C142.249 37.8624 142.432 37.7959 142.581 37.6574ZM144.826 36.1114H144.549L144.67 35.5905H144.942L144.981 35.4243C145.164 34.6873 145.374 34.3826 145.95 34.3826C146.122 34.3826 146.333 34.4435 146.444 34.4879L146.333 34.9311C146.244 34.9145 146.083 34.8924 145.962 34.8924C145.734 34.8924 145.651 35.1085 145.579 35.4243L145.54 35.585H146.183L146.056 36.0948H145.424L144.909 38.3334L144.565 39.5192H144.028L144.826 36.1059V36.1114ZM146.887 36.1114H146.61L146.732 35.5905H147.003L147.042 35.4243C147.225 34.6873 147.435 34.3826 148.012 34.3826C148.184 34.3826 148.394 34.4435 148.505 34.4879L148.394 34.9311C148.305 34.9145 148.145 34.8924 148.023 34.8924C147.796 34.8924 147.713 35.1085 147.64 35.4243L147.602 35.585H148.244L148.117 36.0948H147.485L146.97 38.3334L146.626 39.5192H146.089L146.887 36.1059V36.1114ZM148.882 35.5905H149.48L148.848 38.3389H148.25L148.882 35.5905ZM149.12 34.5377H149.724L149.58 35.1805H148.97L149.12 34.5377ZM149.912 37.4911C149.912 36.4328 150.383 35.5296 151.353 35.5296C151.613 35.5296 151.94 35.6127 152.118 35.6737L151.963 36.1169C151.791 36.0837 151.503 36.0504 151.331 36.0504C150.777 36.0504 150.522 36.7431 150.522 37.3692C150.522 37.6962 150.655 37.8735 151.004 37.8735C151.17 37.8735 151.436 37.8402 151.602 37.8181L151.553 38.2669C151.386 38.3223 151.065 38.3943 150.788 38.3943C150.245 38.3943 149.907 38.0674 149.907 37.4856L149.912 37.4911ZM152.323 37.5078C152.323 36.527 152.76 35.5351 153.819 35.5351C154.367 35.5351 154.722 35.7512 154.722 36.2887C154.722 36.9924 154.234 37.1919 153.193 37.1919H152.96C152.938 37.275 152.927 37.3969 152.927 37.4911C152.927 37.7571 153.121 37.8846 153.376 37.8846C153.664 37.8846 154.063 37.8347 154.29 37.7904L154.223 38.2447C154.007 38.3112 153.586 38.3999 153.215 38.3999C152.627 38.3999 152.323 38.1173 152.323 37.5078ZM153.287 36.7375C153.885 36.7375 154.124 36.6267 154.124 36.2998C154.124 36.0948 154.002 36.0172 153.786 36.0172C153.387 36.0172 153.143 36.2887 153.026 36.7375H153.287ZM156.373 38.2059L156.473 37.7571C156.75 37.8014 157.21 37.8624 157.498 37.8624C157.975 37.8624 158.257 37.6463 158.257 37.1698C158.257 36.9149 158.163 36.8373 157.675 36.6433C157.166 36.4328 156.922 36.2333 156.922 35.7291C156.922 35.0087 157.421 34.5156 158.213 34.5156C158.623 34.5156 159.083 34.6208 159.31 34.6984L159.199 35.1417C158.939 35.0974 158.501 35.042 158.218 35.042C157.797 35.042 157.542 35.2747 157.542 35.6626C157.542 35.9119 157.653 35.984 158.124 36.1724C158.712 36.4217 158.883 36.6046 158.883 37.0977C158.883 37.94 158.329 38.3999 157.487 38.3999C157.088 38.3999 156.606 38.2946 156.368 38.2059H156.373ZM159.521 37.4191C159.521 36.4937 160.053 35.5351 160.906 35.5351C161.56 35.5351 161.931 35.8399 161.931 36.527C161.931 37.4468 161.443 38.3999 160.54 38.3999C159.886 38.3999 159.521 38.1117 159.521 37.4191ZM161.338 36.5159C161.338 36.2222 161.194 36.0449 160.906 36.0449C160.418 36.0449 160.114 36.7486 160.114 37.4246C160.114 37.7183 160.258 37.8846 160.54 37.8846C161.033 37.8846 161.338 37.1919 161.338 36.5159ZM163.255 34.4435H163.854L162.956 38.3334H162.358L163.255 34.4435ZM164.053 37.6629C164.053 37.4579 164.125 37.1365 164.164 36.9592L164.48 35.5905H165.078L164.779 36.9149C164.74 37.07 164.674 37.3637 164.674 37.5188C164.674 37.746 164.751 37.8735 164.968 37.8735C165.15 37.8735 165.45 37.6186 165.621 37.4246L166.043 35.5905H166.641L166.009 38.3389H165.433L165.494 37.9843C165.339 38.1616 165.017 38.3999 164.718 38.3999C164.247 38.3999 164.059 38.0785 164.059 37.6629H164.053ZM167.162 37.8347C167.162 37.6574 167.201 37.4524 167.245 37.2695L167.522 36.1003H167.195L167.334 35.5905H167.649L167.821 34.8369H168.42L168.242 35.5905H168.902L168.774 36.1003H168.12L167.838 37.3194C167.81 37.4357 167.782 37.5964 167.782 37.6906C167.782 37.8181 167.843 37.8901 167.993 37.8901C168.098 37.8901 168.281 37.8735 168.386 37.8569L168.337 38.2946C168.209 38.3389 167.965 38.3999 167.76 38.3999C167.372 38.3999 167.162 38.1616 167.162 37.8402V37.8347ZM169.572 35.5905H170.171L169.539 38.3389H168.941L169.572 35.5905ZM169.811 34.5377H170.415L170.27 35.1805H169.661L169.811 34.5377ZM170.581 37.4191C170.581 36.4937 171.113 35.5351 171.966 35.5351C172.62 35.5351 172.991 35.8399 172.991 36.527C172.991 37.4468 172.504 38.3999 171.6 38.3999C170.946 38.3999 170.581 38.1117 170.581 37.4191ZM172.398 36.5159C172.398 36.2222 172.254 36.0449 171.966 36.0449C171.478 36.0449 171.174 36.7486 171.174 37.4246C171.174 37.7183 171.318 37.8846 171.6 37.8846C172.093 37.8846 172.398 37.1919 172.398 36.5159ZM174.049 35.5905H174.62L174.559 35.9452C174.72 35.7679 175.041 35.5296 175.341 35.5296C175.812 35.5296 176 35.851 176 36.2666C176 36.4716 175.928 36.793 175.889 36.9703L175.568 38.3389H174.975L175.274 37.0146C175.313 36.8595 175.374 36.5658 175.374 36.4106C175.374 36.1834 175.318 36.056 175.086 36.056C174.897 36.056 174.604 36.3109 174.432 36.5048L174.011 38.3389H173.412L174.044 35.5905H174.049Z" fill="#ED1C24"/>
<path d="M174.554 20.4523C173.656 17.3271 169.899 15.9917 166.924 14.95C164.796 14.2352 162.613 13.5204 162.613 12.0852C162.613 10.8939 163.943 10.6058 165.489 10.6058C167.777 10.6058 171.345 11.5644 172.941 12.2293L173.013 5.66307C170.969 4.96489 168.625 4.53822 166.115 4.46065C165.838 4.45511 165.561 4.44956 165.278 4.44956H165.062C163.062 4.44956 161.266 4.63796 159.731 5.04801C155.958 6.05095 153.725 8.35606 153.725 12.3235C153.725 16.6234 158.196 18.2913 162.081 19.8206C163.749 20.5022 165.466 21.1893 165.799 22.2532C165.838 22.3751 165.86 22.5025 165.86 22.6355C165.86 24.0208 164.635 24.2591 163.095 24.2591C160.38 24.2591 154.534 22.4693 152.993 21.9928L153.032 28.4094C155.055 29.3181 159.366 30.2213 162.934 30.2213C171.024 30.2213 174.753 27.218 174.753 21.9207C174.753 21.3888 174.681 20.9012 174.554 20.4523ZM140.393 4.44956V23.8989C139.456 24.0873 138.47 24.2369 137.218 24.2369C135.35 24.0873 133.633 23.367 133.633 20.5188V4.44956H124.634V21.0009C124.634 27.955 130.042 30.2213 135.816 30.2213C141.59 30.2213 146.942 28.7751 149.336 27.955V4.44956H140.393ZM108.06 4.44956C103.566 4.44956 98.8676 5.40818 95.8033 6.41666V39.6523H104.641V29.9831C105.816 30.177 107.041 30.2712 108.11 30.2712C118.068 30.2712 120.982 23.9931 120.982 16.9559C120.982 6.94307 114.649 4.44956 108.06 4.44956ZM106.991 23.9931C106.276 23.9931 105.506 23.8989 104.641 23.705V10.8717C105.661 10.6279 106.631 10.5836 107.395 10.5836C110.615 10.5836 112.094 12.8333 112.094 16.906C112.094 21.2669 110.46 23.9931 106.991 23.9931ZM78.4762 3.06982C67.0892 3.06982 64.7065 10.0683 64.7065 17.3105C64.7065 24.5528 66.9008 31.5069 78.3377 31.5069C89.7746 31.5069 92.1517 24.4696 92.1517 17.3105C92.1517 10.1514 89.9574 3.06982 78.4762 3.06982ZM78.4319 24.2646C73.6222 24.2646 72.8742 21.1893 72.8742 17.2884C72.8742 13.3874 73.6222 10.1071 78.4319 10.1071C83.2416 10.1071 83.9343 13.3209 83.9343 17.2884C83.9343 21.2558 83.2361 24.2646 78.4319 24.2646Z" fill="#0086C9"/>
</svg>
