<svg width="108" height="38" viewBox="0 0 108 38" fill="none" xmlns="http://www.w3.org/2000/svg">
<path fill-rule="evenodd" clip-rule="evenodd" d="M64.4075 0.294898H2.33212C1.76718 0.294898 1.27071 0.517452 0.894081 0.894081C0.534571 1.25359 0.294898 1.76718 0.294898 2.33212V35.2701C0.294898 35.835 0.517452 36.3315 0.894081 36.7081C1.25359 37.0676 1.76718 37.3073 2.33212 37.3073H64.4075C64.9725 37.3073 65.4689 37.0848 65.8456 36.7081C66.2051 36.3486 66.4447 35.835 66.4447 35.2701V2.33212C66.4447 1.76718 66.2222 1.27071 65.8456 0.894081C65.486 0.517452 64.9725 0.294898 64.4075 0.294898Z" fill="#FFFDFC"/>
<path d="M66.1499 2.33201C66.1498 1.8491 65.9608 1.42692 65.6368 1.10287L65.632 1.09808C65.3299 0.781743 64.8943 0.589834 64.4077 0.589796H2.33201C1.84909 0.589825 1.42692 0.778824 1.10287 1.10287C0.794624 1.41112 0.589827 1.85085 0.589796 2.33201V35.2703C0.589849 35.7532 0.778845 36.1754 1.10287 36.4994C1.41111 36.8077 1.85088 37.0125 2.33201 37.0125H64.4077C64.8905 37.0125 65.3128 36.8235 65.6368 36.4994C65.945 36.1912 66.1498 35.7514 66.1499 35.2703V2.33201ZM66.7397 35.2703C66.7396 35.9189 66.4647 36.5059 66.054 36.9166C65.6248 37.3457 65.0545 37.6023 64.4077 37.6023H2.33201C1.6834 37.6023 1.09642 37.3273 0.685698 36.9166C0.256555 36.4875 5.40217e-05 35.9171 0 35.2703V2.33201C3.04646e-05 1.68337 0.27497 1.09643 0.685698 0.685698C1.11486 0.256534 1.68514 2.88433e-05 2.33201 0H64.4077C65.0506 3.8056e-05 65.642 0.253853 66.0588 0.690493C66.4853 1.11915 66.7396 1.68736 66.7397 2.33201V35.2703Z" fill="#004F87"/>
<path fill-rule="evenodd" clip-rule="evenodd" d="M50.6513 0.00377885H103.511C105.575 0.00377885 107.226 1.0541 107.226 2.32826V35.4565C107.226 36.7479 105.547 37.781 103.511 37.781H50.6513V0.00377885Z" fill="#004F87"/>
<path d="M75.4532 19.0921L74.5972 16.9179H70.3345L69.5298 19.0921H66.6538L71.2589 8.04997H73.844L78.4149 19.0921H75.4532ZM72.5086 10.9774L71.1048 14.7779H73.8611L72.5086 10.9774ZM84.3896 15.3429V18.6127H82.3695V15.3429H79.0654V13.3741H82.3524V10.1043H84.3725V13.3741H87.6765V15.3429H84.3896ZM67.6809 28.9187V22.7728H69.4785C69.7695 22.7728 70.0605 22.807 70.3173 22.8584C70.5741 22.9097 70.7967 23.0124 70.985 23.1323C71.1733 23.2692 71.3103 23.4233 71.413 23.6459C71.5157 23.8513 71.5671 24.1081 71.5671 24.4162C71.5671 24.6388 71.5328 24.8442 71.4472 25.0325C71.3616 25.2208 71.2589 25.3749 71.122 25.5119C70.985 25.6488 70.8138 25.7516 70.6255 25.8372C70.4372 25.9227 70.2317 25.9741 70.0092 25.9912L71.7896 28.9187H71.0364L69.3415 26.0426H68.3144V28.9187H67.6809ZM68.2972 25.5119H69.3758C69.8722 25.5119 70.266 25.4263 70.5399 25.238C70.8138 25.0497 70.9508 24.7757 70.9508 24.4162C70.9508 24.2108 70.9165 24.0396 70.8309 23.9026C70.7624 23.7657 70.6597 23.6459 70.5228 23.5603C70.3858 23.4747 70.2317 23.4062 70.0434 23.3719C69.8551 23.3377 69.6497 23.3035 69.41 23.3035H68.2972V25.5119ZM75.2649 26.2994C75.2649 25.9399 75.1793 25.6831 74.991 25.5119C74.8027 25.3407 74.5459 25.2551 74.1863 25.2551C73.9467 25.2551 73.7241 25.3064 73.5187 25.392C73.3133 25.4776 73.1421 25.5975 72.988 25.7344L72.6627 25.3407C72.8339 25.1695 73.0565 25.0325 73.3304 24.9298C73.6043 24.8271 73.9124 24.7586 74.2548 24.7586C74.4774 24.7586 74.6828 24.7929 74.8711 24.8442C75.0594 24.8956 75.2306 24.9983 75.3676 25.1181C75.5045 25.238 75.6244 25.392 75.71 25.5804C75.7956 25.7687 75.8298 25.9741 75.8298 26.2309V28.0113C75.8298 28.1654 75.8298 28.3366 75.8469 28.4907C75.8641 28.6619 75.8812 28.7988 75.8983 28.9187H75.3676C75.3505 28.8159 75.3334 28.7132 75.3162 28.5934C75.2991 28.4736 75.2991 28.3708 75.2991 28.251H75.282C75.0937 28.5249 74.8883 28.7132 74.6486 28.8331C74.4089 28.9529 74.135 29.0043 73.8097 29.0043C73.6556 29.0043 73.5016 28.9871 73.3304 28.9358C73.1592 28.8844 73.0222 28.816 72.8853 28.7304C72.7483 28.6276 72.6456 28.5078 72.5429 28.3537C72.4573 28.1996 72.4059 28.0113 72.4059 27.7888C72.4059 27.4806 72.4915 27.2238 72.6456 27.0526C72.7997 26.8643 73.0222 26.7274 73.279 26.6418C73.5358 26.5562 73.844 26.4877 74.1863 26.4706C74.5287 26.4363 74.8882 26.4363 75.2478 26.4363V26.2994H75.2649ZM75.0937 26.8814C74.854 26.8814 74.6143 26.8986 74.3575 26.9157C74.1179 26.9328 73.8953 26.9842 73.6899 27.0355C73.4845 27.104 73.3304 27.1896 73.2105 27.2923C73.0907 27.395 73.0222 27.5662 73.0222 27.7545C73.0222 27.8915 73.0565 28.0284 73.1078 28.114C73.1592 28.1996 73.2277 28.2852 73.3304 28.3537C73.4331 28.4222 73.5187 28.4564 73.6385 28.4907C73.7584 28.5249 73.8611 28.5249 73.9809 28.5249C74.1863 28.5249 74.3747 28.4907 74.5287 28.4222C74.6828 28.3537 74.8198 28.251 74.9396 28.1312C75.0423 28.0113 75.1279 27.8573 75.1964 27.7032C75.2649 27.5491 75.282 27.3779 75.282 27.1896V26.8814H75.0937ZM79.0483 25.3407H77.9013V27.7032C77.9013 27.8573 77.9184 27.9771 77.9526 28.0798C77.9869 28.1825 78.0211 28.251 78.0725 28.3024C78.1238 28.3537 78.1923 28.388 78.2608 28.4222C78.3293 28.4393 78.4149 28.4564 78.5005 28.4564C78.5861 28.4564 78.6717 28.4393 78.7573 28.4222C78.8429 28.4051 78.9285 28.3708 79.0141 28.3195L79.0483 28.8331C78.9456 28.8673 78.8429 28.9015 78.723 28.9187C78.6032 28.9358 78.4833 28.9529 78.3635 28.9529C78.2608 28.9529 78.141 28.9358 78.0211 28.9015C77.9013 28.8673 77.7814 28.816 77.6787 28.7304C77.576 28.6448 77.4904 28.542 77.4219 28.4051C77.3535 28.2681 77.3192 28.0798 77.3192 27.8573V25.3236H76.4804V24.8271H77.3192V23.6801H77.9013V24.8271H79.0483V25.3407ZM80.5719 28.9187H79.9899V24.8613H80.5719V28.9187ZM80.6918 23.2863C80.6918 23.4062 80.6404 23.5089 80.5548 23.5774C80.4692 23.663 80.3665 23.6972 80.2638 23.6972C80.1611 23.6972 80.0583 23.663 79.9727 23.5774C79.8871 23.4918 79.8358 23.4062 79.8358 23.2863C79.8358 23.1665 79.8871 23.0638 79.9727 22.9953C80.0583 22.9097 80.1611 22.8755 80.2638 22.8755C80.3665 22.8755 80.4692 22.9097 80.5548 22.9953C80.6404 23.0638 80.6918 23.1665 80.6918 23.2863ZM82.6434 24.8613C82.6605 24.9641 82.6605 25.101 82.6776 25.2208C82.6776 25.3578 82.6947 25.4605 82.6947 25.5461H82.7119C82.8317 25.3064 83.02 25.1181 83.2768 24.9641C83.5336 24.81 83.8075 24.7415 84.0985 24.7415C84.6121 24.7415 84.9888 24.8956 85.2456 25.2037C85.5023 25.5119 85.6222 25.9227 85.6222 26.4192V28.9015H85.0401V26.6589C85.0401 26.4535 85.023 26.248 84.9888 26.0768C84.9545 25.9056 84.9032 25.7516 84.8176 25.6317C84.732 25.5119 84.6293 25.4092 84.4752 25.3407C84.3382 25.2722 84.1499 25.238 83.9445 25.238C83.7904 25.238 83.6363 25.2722 83.4994 25.3407C83.3453 25.4092 83.2255 25.4948 83.1056 25.6317C82.9858 25.7687 82.9002 25.9228 82.8317 26.1282C82.7632 26.3336 82.729 26.5562 82.729 26.8301V28.9187H82.1469V25.7516C82.1469 25.6488 82.1469 25.4948 82.1298 25.3236C82.1298 25.1524 82.1127 24.9983 82.0956 24.8613H82.6434ZM87.3513 29.7233C87.5053 29.9287 87.7279 30.0999 88.0189 30.254C88.2928 30.3909 88.601 30.4765 88.9091 30.4765C89.2002 30.4765 89.4398 30.4423 89.6453 30.3567C89.8507 30.2711 90.0048 30.1513 90.1246 30.0143C90.2445 29.8774 90.3472 29.7062 90.3985 29.5007C90.4499 29.3124 90.4841 29.107 90.4841 28.8844V28.114H90.4499C90.2958 28.3708 90.0733 28.5592 89.7822 28.6961C89.4912 28.8331 89.2002 28.9015 88.9091 28.9015C88.601 28.9015 88.31 28.8502 88.0532 28.7475C87.7964 28.6448 87.5738 28.5078 87.4026 28.3195C87.2143 28.1312 87.0773 27.9257 86.9746 27.6689C86.8719 27.4122 86.8205 27.1382 86.8205 26.8472C86.8205 26.5562 86.8719 26.2823 86.9746 26.0255C87.0773 25.7687 87.2143 25.5461 87.4026 25.3578C87.5909 25.1695 87.7964 25.0154 88.0532 24.9127C88.31 24.81 88.601 24.7415 88.9091 24.7415C89.2002 24.7415 89.4912 24.81 89.7651 24.9469C90.039 25.0839 90.2616 25.2893 90.4328 25.5461H90.4499V24.8442H91.032V28.8673C91.032 29.0899 90.9977 29.3295 90.9464 29.5692C90.8779 29.826 90.7752 30.0486 90.604 30.254C90.4328 30.4594 90.2102 30.6306 89.9363 30.7676C89.6624 30.9045 89.2858 30.973 88.8407 30.973C88.464 30.973 88.1045 30.9045 87.7792 30.7505C87.4369 30.6135 87.1458 30.4081 86.9062 30.1513L87.3513 29.7233ZM87.4711 26.8301C87.4711 27.0355 87.5053 27.2409 87.5738 27.4293C87.6423 27.6176 87.745 27.7888 87.8648 27.9257C88.0018 28.0627 88.1559 28.1825 88.3442 28.2681C88.5325 28.3537 88.7551 28.388 88.9947 28.388C89.2173 28.388 89.4227 28.3537 89.611 28.2681C89.7994 28.1996 89.9706 28.0798 90.1075 27.9429C90.2445 27.8059 90.3472 27.6347 90.4328 27.4464C90.5184 27.2581 90.5526 27.0355 90.5526 26.7958C90.5526 26.5904 90.5184 26.385 90.4328 26.1967C90.3472 26.0084 90.2445 25.8372 90.1075 25.7002C89.9706 25.5632 89.7994 25.4434 89.611 25.3578C89.4227 25.2722 89.2173 25.2208 88.9947 25.2208C88.7551 25.2208 88.5325 25.2722 88.3442 25.3578C88.1559 25.4434 88.0018 25.5632 87.8648 25.7002C87.7279 25.8372 87.6423 26.0084 87.5738 26.1967C87.5053 26.4192 87.4711 26.6246 87.4711 26.8301Z" fill="white"/>
<path d="M35.6612 32.4967C35.7982 32.4967 35.9351 32.548 36.0207 32.6507C36.1234 32.7534 36.1748 32.8733 36.1748 33.0102C36.1748 33.1472 36.1234 33.2842 36.0207 33.3869C35.918 33.4896 35.7982 33.541 35.6612 33.541C35.5243 33.541 35.3873 33.4896 35.3017 33.3869C35.199 33.2842 35.1476 33.1643 35.1476 33.0102C35.1476 32.8733 35.199 32.7534 35.3017 32.6507C35.4044 32.548 35.5243 32.4967 35.6612 32.4967ZM35.6612 32.5651C35.5414 32.5651 35.4387 32.6165 35.3531 32.7021C35.2675 32.7877 35.2161 32.8904 35.2161 33.0102C35.2161 33.1301 35.2675 33.2328 35.3531 33.3355C35.4387 33.4211 35.5414 33.4725 35.6612 33.4725C35.781 33.4725 35.8838 33.4211 35.9694 33.3355C36.055 33.2499 36.1063 33.1472 36.1063 33.0102C36.1063 32.8904 36.055 32.7877 35.9694 32.7021C35.9009 32.6165 35.781 32.5651 35.6612 32.5651ZM19.7401 26.7103C20.5104 26.7103 21.1439 26.8986 21.5205 27.2923C21.8458 27.6176 21.9656 27.9942 21.9656 28.4393C21.9656 29.2097 21.589 29.6548 21.0754 29.9116C21.8458 30.2369 22.3422 30.682 22.3422 31.5722C22.3422 32.7363 21.4007 33.3869 19.9626 33.4211H16.6243V26.6931H19.7401V26.7103ZM26.0914 26.7103C26.8618 26.7103 27.4952 26.8986 27.8718 27.2923C28.1971 27.6176 28.3169 27.9942 28.3169 28.4393C28.3169 29.2097 27.9403 29.6548 27.4267 29.9116C28.1971 30.2369 28.6936 30.682 28.6936 31.5722C28.6936 32.7363 27.752 33.3869 26.314 33.4211H22.9756V26.6931H26.0914V26.7103ZM32.4599 26.7103C33.2302 26.7103 33.8637 26.8986 34.2403 27.2923C34.5656 27.6176 34.6854 27.9942 34.6854 28.4393C34.6854 29.2097 34.3088 29.6548 33.7952 29.9116C34.5656 30.2369 35.062 30.682 35.062 31.5722C35.062 32.7363 34.1205 33.3869 32.6824 33.4211H29.3441V26.6931H32.4599V26.7103ZM35.6612 32.7363C35.7297 32.7363 35.781 32.7363 35.8153 32.7534C35.8666 32.7706 35.9009 32.8219 35.9009 32.8904C35.9009 32.9418 35.8838 32.976 35.8495 33.0102C35.8324 33.0274 35.7982 33.0274 35.7639 33.0445C35.8153 33.0445 35.8324 33.0787 35.8666 33.0958C35.8838 33.1301 35.9009 33.1472 35.9009 33.1814V33.2157C35.9009 33.2328 35.9009 33.2499 35.9009 33.2499C35.9009 33.267 35.9009 33.267 35.9009 33.2842H35.8153V33.2157C35.8153 33.1472 35.7982 33.113 35.7639 33.0787C35.7468 33.0616 35.7126 33.0616 35.6441 33.0616H35.5585V33.2842H35.4558V32.7192H35.6612V32.7363ZM19.8085 30.682H18.0281V32.1543H19.8085C20.442 32.1543 20.8871 31.8975 20.8871 31.4524C20.8871 31.0073 20.5618 30.682 19.8085 30.682ZM26.1599 30.682H24.3794V32.1543H26.1599C26.7933 32.1543 27.2384 31.8975 27.2384 31.4524C27.2384 31.0073 26.9303 30.682 26.1599 30.682ZM32.4599 30.682H30.7479V32.1543H32.5112C33.1446 32.1543 33.5213 31.8975 33.5213 31.4524C33.5384 31.0073 33.2131 30.682 32.4599 30.682ZM19.5517 28.0627H18.0281V29.4665H19.4319C20.0653 29.4665 20.5104 29.2782 20.5104 28.7646C20.5104 28.3195 20.1852 28.0627 19.5517 28.0627ZM25.9031 28.0627H24.3794V29.4665H25.7832C26.4167 29.4665 26.8618 29.2782 26.8618 28.7646C26.8618 28.3195 26.5365 28.0627 25.9031 28.0627ZM32.2544 28.0627H30.7993V29.4665H32.1346C32.768 29.4665 33.2131 29.2782 33.2131 28.7646C33.2131 28.3195 32.8878 28.0627 32.2544 28.0627ZM31.5012 22.2934L31.9292 23.6459H28.899L28.3341 25.5632H23.318L22.7531 23.6459H19.7229L20.1509 22.2934H31.5012ZM23.4036 12.4839L23.7974 12.8092C23.7974 12.8092 23.4036 13.357 23.9343 13.8706L24.0199 13.9391L26.5879 15.8051C27.0843 16.1989 27.4267 16.7296 27.5979 17.3116C27.6493 17.4828 27.8205 18.3217 27.5123 19.1263C27.461 19.2461 27.3925 19.366 27.3411 19.4858L27.2384 19.657L25.7832 21.6429L25.3724 21.3005C25.3895 21.2834 25.4066 21.2662 25.4066 21.2491C25.4237 21.2149 25.4409 21.1978 25.458 21.1635C25.5436 21.0095 25.5436 20.8554 25.5093 20.7527C25.5093 20.7184 25.4922 20.7013 25.4922 20.6671V20.6499C25.4922 20.6328 25.4751 20.6157 25.458 20.5986L25.4237 20.5301L25.3895 20.4788C25.3381 20.4274 25.2868 20.376 25.2354 20.3247L25.2012 20.2904L22.5477 18.3902C21.9827 17.9451 21.589 17.2945 21.4691 16.5926C21.452 16.4557 21.452 16.3016 21.452 16.1646C21.452 15.5997 21.5718 15.0861 21.8629 14.6239L21.9656 14.4698L23.0099 13.066L23.4036 12.4839ZM25.7832 3.47906L26.1085 3.73586C25.9202 3.99265 25.8517 4.31792 25.9202 4.62607C25.9716 4.89998 26.1256 5.13966 26.3311 5.31085L26.4167 5.37933L30.5425 8.39237C31.4327 9.02579 31.9463 9.93312 32.1346 10.9603C32.3058 11.919 32.1003 12.929 31.5525 13.7508L31.4327 13.9049L28.6936 17.6883L28.3169 17.4144C28.3169 17.4144 28.5053 17.1576 28.608 16.7981L28.6422 16.6953L28.6764 16.5584C28.7107 16.3872 28.7107 16.216 28.7107 16.0448L28.6936 15.925V15.8907C28.6764 15.7538 28.6422 15.6339 28.5909 15.497C28.5909 15.4799 28.5909 15.4798 28.5737 15.4627C28.4539 15.1546 28.2313 14.8635 27.9745 14.641L27.8547 14.5554L24.4308 12.0559C23.5406 11.4225 23.027 10.5152 22.8387 9.48802C22.7702 9.2997 22.7702 9.04291 22.7702 8.85459C22.7702 8.08422 22.9756 7.38231 23.4036 6.73177L23.5235 6.56058L25.7832 3.47906Z" fill="#004F87"/>
</svg>
