<svg width="80" height="39" viewBox="0 0 80 39" fill="none" xmlns="http://www.w3.org/2000/svg">
<path d="M20.9101 7.23361H28.9854V8.78655H25.8795V17.1724H24.016V8.78655H20.9101V7.23361ZM28.5195 9.8736H30.0724V11.2712C30.0724 11.116 30.2277 10.9607 30.383 10.6501C30.5383 10.3395 30.6936 10.3395 30.8489 10.1842C31.0042 10.0289 31.3148 9.8736 31.4701 9.8736C31.6254 9.71831 31.936 9.71831 32.2465 9.71831C32.4018 9.71831 32.5571 9.71831 32.5571 9.71831H32.7124V11.2712C32.5571 11.2712 32.5571 11.2712 32.4018 11.2712C32.2465 11.2712 32.2465 11.2712 32.0912 11.2712C31.7807 11.2712 31.6254 11.2712 31.3148 11.4265C31.0042 11.5818 30.8489 11.7371 30.6936 11.8924C30.5383 12.0477 30.383 12.3583 30.2277 12.6689C30.0724 12.9795 30.0724 13.2901 30.0724 13.7559V17.1724H28.5195V9.8736ZM40.0112 17.1724H38.4583V16.2406C38.303 16.5512 37.9924 16.8618 37.5265 17.1724C37.2159 17.3277 36.7501 17.483 36.2842 17.483C35.3524 17.483 34.7312 17.3277 34.2654 16.7065C33.7995 16.0854 33.6442 15.4642 33.6442 14.5324V10.0289H35.1971V14.3771C35.1971 14.9983 35.3524 15.4642 35.5077 15.7748C35.8183 16.0854 36.1289 16.2406 36.5948 16.2406C36.9054 16.2406 37.2159 16.2406 37.3712 16.0854C37.5265 15.9301 37.8371 15.7748 37.8371 15.6195C37.9924 15.4642 38.1477 15.3089 38.1477 14.9983C38.1477 14.6877 38.303 14.5324 38.303 14.2218V10.0289H39.8559V17.1724H40.0112ZM42.6512 14.843C42.6512 15.3089 42.8065 15.6195 43.1171 15.7748C43.4277 15.9301 43.7383 16.0854 44.2042 16.0854C44.3595 16.0854 44.5147 16.0854 44.67 16.0854C44.8253 16.0854 44.9806 16.0854 45.1359 15.9301C45.2912 15.9301 45.4465 15.7748 45.6018 15.6195C45.7571 15.4642 45.7571 15.3089 45.7571 15.1536C45.7571 14.9983 45.6018 14.843 45.6018 14.6877C45.4465 14.5324 45.2912 14.5324 45.1359 14.3771C44.9806 14.3771 44.67 14.2218 44.3595 14.2218C44.0489 14.2218 43.7383 14.0665 43.583 14.0665C43.2724 14.0665 42.9618 13.9112 42.8065 13.7559C42.6512 13.6007 42.3406 13.6007 42.03 13.4454C41.8748 13.2901 41.5642 13.1348 41.5642 12.8242C41.4089 12.5136 41.4089 12.203 41.4089 11.8924C41.4089 11.4265 41.5642 11.116 41.7195 10.9607C41.8748 10.8054 42.1853 10.4948 42.4959 10.3395C42.8065 10.1842 43.1171 10.0289 43.4277 10.0289C43.7383 10.0289 44.2042 9.8736 44.5147 9.8736C44.8253 9.8736 45.2912 9.8736 45.6018 10.0289C45.9124 10.0289 46.223 10.1842 46.5336 10.3395C46.8442 10.4948 46.9995 10.8054 47.1547 10.9607C47.31 11.2712 47.4653 11.5818 47.4653 12.0477H45.7571C45.7571 11.7371 45.4465 11.4265 45.2912 11.2712C44.8253 11.116 44.5147 10.9607 44.2042 10.9607C44.0489 10.9607 43.8936 10.9607 43.7383 10.9607C43.583 10.9607 43.4277 10.9607 43.2724 11.116C43.1171 11.116 42.9618 11.2712 42.9618 11.2712C42.8065 11.4265 42.8065 11.4265 42.8065 11.5818C42.8065 11.7371 42.8065 11.8924 42.9618 12.0477C43.1171 12.203 43.2724 12.203 43.4277 12.3583C43.583 12.3583 43.8936 12.5136 44.2042 12.5136C44.5147 12.5136 44.8253 12.6689 45.1359 12.6689C45.4465 12.6689 45.7571 12.8242 45.9124 12.9795C46.223 13.1348 46.3783 13.1348 46.6889 13.2901C46.9994 13.4454 47.1547 13.6007 47.1547 13.9112C47.31 14.2218 47.31 14.3771 47.31 14.843C47.31 15.3089 47.1547 15.6195 46.9994 15.9301C46.8442 16.2406 46.5336 16.3959 46.223 16.7065C46.0677 17.0171 45.7571 17.1724 45.4465 17.1724C45.1359 17.1724 44.67 17.3277 44.3595 17.3277C43.8936 17.3277 43.4277 17.3277 43.1171 17.1724C42.8065 17.0171 42.3406 16.8618 42.1853 16.7065C41.8748 16.5512 41.7195 16.2406 41.5642 15.9301C41.2536 15.6195 41.0983 15.3089 41.0983 14.843H42.6512ZM47.9312 9.8736H49.1736V7.85479H50.7265V10.0289H52.1241V11.2712H50.7265V15.1536C50.7265 15.3089 50.7265 15.4642 50.7265 15.6195C50.7265 15.7748 50.7265 15.7748 50.8818 15.9301C51.0371 16.0854 51.0371 16.0854 51.0371 16.0854C51.1924 16.0854 51.3477 16.0854 51.503 16.0854C51.6583 16.0854 51.6583 16.0854 51.8136 16.0854C51.9688 16.0854 51.9688 16.0854 52.1241 16.0854V17.1724C51.9688 17.1724 51.8135 17.1724 51.6583 17.1724C51.503 17.1724 51.3477 17.1724 51.1924 17.1724C50.7265 17.1724 50.4159 17.1724 50.2606 17.0171C49.95 17.0171 49.7947 16.8618 49.6394 16.7065C49.4841 16.5512 49.3288 16.3959 49.3288 16.0854C49.3288 15.9301 49.1736 15.6195 49.1736 15.3089V11.116H47.9312V9.8736ZM53.2112 9.8736H54.7641V10.9607C54.9194 10.4948 55.23 10.1842 55.6959 10.0289C56.1618 9.8736 56.4724 9.71831 56.9382 9.71831C57.5594 9.71831 58.0253 9.8736 58.4912 10.0289C58.9571 10.1842 59.2677 10.4948 59.5782 10.8054C59.8888 11.116 60.0441 11.5818 60.1994 12.0477C60.3547 12.5136 60.3547 12.9795 60.3547 13.6007C60.3547 14.0665 60.3547 14.5324 60.1994 14.9983C60.0441 15.4642 59.8888 15.7748 59.5782 16.2406C59.2677 16.5512 58.9571 16.8618 58.6465 17.0171C58.1806 17.1724 57.87 17.3277 57.2488 17.3277C57.0935 17.3277 56.783 17.3277 56.6277 17.3277C56.4724 17.3277 56.1618 17.1724 56.0065 17.1724C55.8512 17.0171 55.5406 17.0171 55.3853 16.8618C55.23 16.7065 55.0747 16.5512 54.9194 16.3959V19.9677H53.3665V9.8736H53.2112ZM58.8018 13.6007C58.8018 13.2901 58.8018 12.9795 58.6465 12.6689C58.4912 12.3583 58.4912 12.0477 58.3359 11.8924C58.1806 11.7371 58.0253 11.4265 57.7147 11.2712C57.4041 11.116 57.2488 11.116 56.7829 11.116C56.1618 11.116 55.5406 11.2712 55.23 11.7371C54.9194 12.203 54.7641 12.8242 54.7641 13.6007C54.7641 13.9112 54.7641 14.3771 54.9194 14.5324C55.0747 14.843 55.0747 15.1536 55.3853 15.3089C55.5406 15.4642 55.6959 15.7748 56.0065 15.7748C56.3171 15.9301 56.4724 15.9301 56.7829 15.9301C57.0935 15.9301 57.4041 15.9301 57.7147 15.7748C58.0253 15.6195 58.1806 15.4642 58.3359 15.1536C58.4912 14.843 58.6465 14.6877 58.6465 14.3771C58.6465 14.2218 58.8018 13.9112 58.8018 13.6007ZM61.5971 7.23361H63.15V8.78655H61.5971V7.23361ZM61.5971 9.8736H63.15V17.1724H61.5971V9.8736ZM64.5476 7.23361H66.1006V17.1724H64.5476V7.23361ZM70.9147 17.3277C70.2935 17.3277 69.8276 17.1724 69.3617 17.0171C68.8959 16.8618 68.5853 16.5512 68.2747 16.2406C67.9641 15.9301 67.6535 15.4642 67.4982 14.9983C67.3429 14.5324 67.1876 14.0665 67.1876 13.4454C67.1876 12.8242 67.3429 12.3583 67.4982 11.8924C67.6535 11.4265 67.9641 10.9607 68.2747 10.6501C68.5853 10.3395 68.8959 10.0289 69.3617 9.8736C69.8276 9.71831 70.2935 9.56302 70.9147 9.56302C71.5359 9.56302 72.0017 9.71831 72.4676 9.8736C72.9335 10.0289 73.2441 10.3395 73.5547 10.6501C73.8653 10.9607 74.1759 11.4265 74.3312 11.8924C74.4864 12.3583 74.6417 12.8242 74.6417 13.4454C74.6417 14.0665 74.4864 14.5324 74.3312 14.9983C74.1759 15.4642 73.8653 15.9301 73.5547 16.2406C73.2441 16.5512 72.9335 16.8618 72.4676 17.0171C72.0017 17.1724 71.5359 17.3277 70.9147 17.3277ZM70.9147 16.0854C71.2253 16.0854 71.5359 16.0854 71.8464 15.9301C72.157 15.7748 72.3123 15.6195 72.4676 15.3089C72.6229 14.9983 72.7782 14.843 72.7782 14.5324C72.7782 14.2218 72.9335 13.9112 72.9335 13.6007C72.9335 13.2901 72.9335 12.9795 72.7782 12.6689C72.7782 12.3583 72.6229 12.0477 72.4676 11.8924C72.3123 11.7371 72.157 11.4265 71.8464 11.2712C71.5359 11.116 71.2253 11.116 70.9147 11.116C70.6041 11.116 70.2935 11.116 69.9829 11.2712C69.6723 11.4265 69.517 11.5818 69.3617 11.8924C69.2065 12.203 69.0512 12.3583 69.0512 12.6689C69.0512 12.9795 68.8959 13.2901 68.8959 13.6007C68.8959 13.9112 68.8959 14.2218 69.0512 14.5324C69.0512 14.843 69.2065 15.1536 69.3617 15.3089C69.517 15.6195 69.6723 15.7748 69.9829 15.9301C70.2935 15.9301 70.6041 16.0854 70.9147 16.0854ZM75.1076 9.8736H76.35V7.85479H77.9029V10.0289H79.3005V11.2712H77.9029V15.1536C77.9029 15.3089 77.9029 15.4642 77.9029 15.6195C77.9029 15.7748 77.9029 15.7748 78.0582 15.9301C78.2135 16.0854 78.2135 16.0854 78.2135 16.0854C78.3688 16.0854 78.5241 16.0854 78.6794 16.0854C78.8347 16.0854 78.8347 16.0854 78.99 16.0854C79.1453 16.0854 79.1452 16.0854 79.3005 16.0854V17.1724C79.1452 17.1724 78.99 17.1724 78.8347 17.1724C78.6794 17.1724 78.5241 17.1724 78.3688 17.1724C77.9029 17.1724 77.5923 17.1724 77.437 17.0171C77.1264 17.0171 76.9711 16.8618 76.8158 16.7065C76.6606 16.5512 76.5053 16.3959 76.5053 16.0854C76.5053 15.9301 76.35 15.6195 76.35 15.3089V11.116H75.1076V9.8736Z" fill="white"/>
<path d="M19.0468 7.23413H11.748L9.57384 0.245911L7.24443 7.23413H0.100922L5.84679 11.4271L3.67268 18.4153L9.57384 14.067L15.3197 18.4153L13.1456 11.4271L19.0468 7.23413Z" fill="#00B67A"/>
<path d="M13.6114 12.9799L13.1456 11.4271L9.57384 14.067L13.6114 12.9799Z" fill="#005128"/>
<path d="M15.0091 22.7631H0.100922V37.6713H15.0091V22.7631Z" fill="#00B67A"/>
<path d="M31.0043 22.7631H16.0961V37.6713H31.0043V22.7631Z" fill="#00B67A"/>
<path d="M47.155 22.7631H32.2468V37.6713H47.155V22.7631Z" fill="#00B67A"/>
<path d="M63.1499 22.7631H48.2417V37.6713H63.1499V22.7631Z" fill="#00B67A"/>
<path d="M79.3006 22.7631H64.3924V37.6713H79.3006V22.7631Z" fill="#DCDCE6"/>
<path d="M64.3924 22.7631H71.8465V37.516H64.3924V22.7631Z" fill="#00B67A"/>
<path d="M7.39965 32.702L9.72905 32.0808L10.6608 35.0314L7.39965 32.702ZM12.6796 28.9749H8.642L7.39965 25.2479L6.1573 28.9749H2.27495L5.53612 31.3043L4.29377 35.0314L7.55494 32.702L9.57376 31.3043L12.6796 28.9749Z" fill="white"/>
<path d="M23.5505 32.702L25.8799 32.0808L26.8116 35.0314L23.5505 32.702ZM28.6751 28.9749H24.6375L23.3952 25.2479L22.1528 28.9749H18.1152L21.3763 31.3043L20.134 35.0314L23.3952 32.702L25.414 31.3043L28.6751 28.9749Z" fill="white"/>
<path d="M39.7006 32.702L42.03 32.0808L42.9617 35.0314L39.7006 32.702ZM44.8253 28.9749H40.7876L39.5453 25.2479L38.3029 28.9749H34.2653L37.5265 31.3043L36.4394 35.0314L39.7006 32.702L41.7194 31.3043L44.8253 28.9749Z" fill="white"/>
<path d="M55.6959 32.702L58.0254 32.0808L58.9571 35.0314L55.6959 32.702ZM60.9759 28.9749H56.9383L55.6959 25.2479L54.4536 28.9749H50.416L53.6771 31.3043L52.4348 35.0314L55.6959 32.702L57.7148 31.3043L60.9759 28.9749Z" fill="white"/>
<path d="M71.8457 32.702L74.1751 32.0808L75.1069 35.0314L71.8457 32.702ZM76.9704 28.9749H72.9327L71.6904 25.2479L70.6033 28.9749H66.5657L69.8269 31.3043L68.5845 35.0314L71.8457 32.702L73.8645 31.3043L76.9704 28.9749Z" fill="white"/>
</svg>
