<svg width="106" height="34" viewBox="0 0 106 34" fill="none" xmlns="http://www.w3.org/2000/svg">
<path d="M33.4004 17.0044C33.4004 15.6546 33.2886 14.6696 33.0468 13.6481H17.3186V19.7405H26.5507C26.3646 21.2546 25.3595 23.5347 23.1259 25.0669L23.0946 25.2708L28.0675 29.0463L28.4121 29.08C31.5762 26.2161 33.4004 22.0024 33.4004 17.0044Z" fill="#4285F4"/>
<path d="M17.3176 33.0567C21.8405 33.0567 25.6375 31.5973 28.411 29.0801L23.1248 25.067C21.7103 26.0338 19.8117 26.7087 17.3176 26.7087C12.8877 26.7087 9.12787 23.8449 7.7876 19.8866L7.59115 19.903L2.42022 23.8248L2.3526 24.009C5.10731 29.3719 10.7657 33.0567 17.3176 33.0567Z" fill="#34A853"/>
<path d="M7.78855 19.8867C7.4349 18.8652 7.23024 17.7707 7.23024 16.6398C7.23024 15.5088 7.43491 14.4144 7.76994 13.3929L7.76057 13.1753L2.52484 9.19052L2.35353 9.27037C1.21818 11.4958 0.566711 13.9948 0.566711 16.6398C0.566711 19.2847 1.21818 21.7836 2.35353 24.009L7.78855 19.8867Z" fill="#FBBC05"/>
<path d="M17.3177 6.57079C20.4633 6.57079 22.5851 7.90237 23.795 9.01514L28.5228 4.49137C25.6192 1.84644 21.8406 0.222992 17.3177 0.222992C10.7658 0.222992 5.10733 3.90763 2.3526 9.27042L7.76902 13.3929C9.12791 9.43465 12.8878 6.57079 17.3177 6.57079Z" fill="#EB4335"/>
<path d="M42.8425 4.50057C42.9615 4.21443 43.3668 4.21443 43.4859 4.50057L44.9255 7.96198C44.9757 8.08261 45.0891 8.16503 45.2194 8.17547L48.9563 8.47506C49.2652 8.49982 49.3904 8.88534 49.1551 9.08695L46.308 11.5258C46.2087 11.6108 46.1654 11.7442 46.1957 11.8712L47.0656 15.5178C47.1375 15.8192 46.8095 16.0575 46.5451 15.896L43.3458 13.9419C43.2343 13.8738 43.094 13.8738 42.9826 13.9419L39.7833 15.896C39.5188 16.0575 39.1908 15.8192 39.2628 15.5178L40.1326 11.8712C40.1629 11.7442 40.1196 11.6108 40.0204 11.5258L37.1732 9.08695C36.9379 8.88534 37.0631 8.49982 37.3721 8.47506L41.1089 8.17547C41.2392 8.16503 41.3526 8.08261 41.4028 7.96198L42.8425 4.50057Z" fill="#F2F4F7"/>
<path d="M42.8425 4.50057C42.9615 4.21443 43.3668 4.21443 43.4859 4.50057L44.9255 7.96198C44.9757 8.08261 45.0891 8.16503 45.2194 8.17547L48.9563 8.47506C49.2652 8.49982 49.3904 8.88534 49.1551 9.08695L46.308 11.5258C46.2087 11.6108 46.1654 11.7442 46.1957 11.8712L47.0656 15.5178C47.1375 15.8192 46.8095 16.0575 46.5451 15.896L43.3458 13.9419C43.2343 13.8738 43.094 13.8738 42.9826 13.9419L39.7833 15.896C39.5188 16.0575 39.1908 15.8192 39.2628 15.5178L40.1326 11.8712C40.1629 11.7442 40.1196 11.6108 40.0204 11.5258L37.1732 9.08695C36.9379 8.88534 37.0631 8.49982 37.3721 8.47506L41.1089 8.17547C41.2392 8.16503 41.3526 8.08261 41.4028 7.96198L42.8425 4.50057Z" fill="#FEC84B"/>
<path d="M56.7787 4.50057C56.8977 4.21443 57.3031 4.21443 57.4221 4.50057L58.8618 7.96198C58.912 8.08261 59.0254 8.16503 59.1557 8.17547L62.8925 8.47506C63.2014 8.49982 63.3267 8.88534 63.0913 9.08695L60.2442 11.5258C60.145 11.6108 60.1017 11.7442 60.132 11.8712L61.0018 15.5178C61.0737 15.8192 60.7458 16.0575 60.4813 15.896L57.282 13.9419C57.1705 13.8738 57.0303 13.8738 56.9188 13.9419L53.7195 15.896C53.4551 16.0575 53.1271 15.8192 53.199 15.5178L54.0689 11.8712C54.0992 11.7442 54.0558 11.6108 53.9566 11.5258L51.1095 9.08695C50.8742 8.88534 50.9994 8.49982 51.3083 8.47506L55.0452 8.17547C55.1754 8.16503 55.2889 8.08261 55.3391 7.96198L56.7787 4.50057Z" fill="#F2F4F7"/>
<path d="M56.7787 4.50057C56.8977 4.21443 57.3031 4.21443 57.4221 4.50057L58.8618 7.96198C58.912 8.08261 59.0254 8.16503 59.1557 8.17547L62.8925 8.47506C63.2014 8.49982 63.3267 8.88534 63.0913 9.08695L60.2442 11.5258C60.145 11.6108 60.1017 11.7442 60.132 11.8712L61.0018 15.5178C61.0737 15.8192 60.7458 16.0575 60.4813 15.896L57.282 13.9419C57.1705 13.8738 57.0303 13.8738 56.9188 13.9419L53.7195 15.896C53.4551 16.0575 53.1271 15.8192 53.199 15.5178L54.0689 11.8712C54.0992 11.7442 54.0558 11.6108 53.9566 11.5258L51.1095 9.08695C50.8742 8.88534 50.9994 8.49982 51.3083 8.47506L55.0452 8.17547C55.1754 8.16503 55.2889 8.08261 55.3391 7.96198L56.7787 4.50057Z" fill="#FEC84B"/>
<path d="M70.715 4.50057C70.834 4.21443 71.2394 4.21443 71.3584 4.50057L72.7981 7.96198C72.8482 8.08261 72.9617 8.16503 73.0919 8.17547L76.8288 8.47506C77.1377 8.49982 77.263 8.88534 77.0276 9.08695L74.1805 11.5258C74.0813 11.6108 74.0379 11.7442 74.0683 11.8712L74.9381 15.5178C75.01 15.8192 74.6821 16.0575 74.4176 15.896L71.2183 13.9419C71.1068 13.8738 70.9666 13.8738 70.8551 13.9419L67.6558 15.896C67.3913 16.0575 67.0634 15.8192 67.1353 15.5178L68.0051 11.8712C68.0354 11.7442 67.9921 11.6108 67.8929 11.5258L65.0458 9.08695C64.8104 8.88534 64.9357 8.49982 65.2446 8.47506L68.9815 8.17547C69.1117 8.16503 69.2251 8.08261 69.2753 7.96198L70.715 4.50057Z" fill="#F2F4F7"/>
<path d="M70.715 4.50057C70.834 4.21443 71.2394 4.21443 71.3584 4.50057L72.7981 7.96198C72.8482 8.08261 72.9617 8.16503 73.0919 8.17547L76.8288 8.47506C77.1377 8.49982 77.263 8.88534 77.0276 9.08695L74.1805 11.5258C74.0813 11.6108 74.0379 11.7442 74.0683 11.8712L74.9381 15.5178C75.01 15.8192 74.6821 16.0575 74.4176 15.896L71.2183 13.9419C71.1068 13.8738 70.9666 13.8738 70.8551 13.9419L67.6558 15.896C67.3913 16.0575 67.0634 15.8192 67.1353 15.5178L68.0051 11.8712C68.0354 11.7442 67.9921 11.6108 67.8929 11.5258L65.0458 9.08695C64.8104 8.88534 64.9357 8.49982 65.2446 8.47506L68.9815 8.17547C69.1117 8.16503 69.2251 8.08261 69.2753 7.96198L70.715 4.50057Z" fill="#FEC84B"/>
<path d="M84.6513 4.50057C84.7703 4.21443 85.1756 4.21443 85.2946 4.50057L86.7343 7.96198C86.7845 8.08261 86.8979 8.16503 87.0282 8.17547L90.7651 8.47506C91.074 8.49982 91.1992 8.88534 90.9639 9.08695L88.1168 11.5258C88.0175 11.6108 87.9742 11.7442 88.0045 11.8712L88.8744 15.5178C88.9463 15.8192 88.6183 16.0575 88.3539 15.896L85.1546 13.9419C85.0431 13.8738 84.9028 13.8738 84.7914 13.9419L81.5921 15.896C81.3276 16.0575 80.9996 15.8192 81.0716 15.5178L81.9414 11.8712C81.9717 11.7442 81.9284 11.6108 81.8292 11.5258L78.982 9.08695C78.7467 8.88534 78.8719 8.49982 79.1809 8.47506L82.9177 8.17547C83.048 8.16503 83.1614 8.08261 83.2116 7.96198L84.6513 4.50057Z" fill="#F2F4F7"/>
<path d="M84.6513 4.50057C84.7703 4.21443 85.1756 4.21443 85.2946 4.50057L86.7343 7.96198C86.7845 8.08261 86.8979 8.16503 87.0282 8.17547L90.7651 8.47506C91.074 8.49982 91.1992 8.88534 90.9639 9.08695L88.1168 11.5258C88.0175 11.6108 87.9742 11.7442 88.0045 11.8712L88.8744 15.5178C88.9463 15.8192 88.6183 16.0575 88.3539 15.896L85.1546 13.9419C85.0431 13.8738 84.9028 13.8738 84.7914 13.9419L81.5921 15.896C81.3276 16.0575 80.9996 15.8192 81.0716 15.5178L81.9414 11.8712C81.9717 11.7442 81.9284 11.6108 81.8292 11.5258L78.982 9.08695C78.7467 8.88534 78.8719 8.49982 79.1809 8.47506L82.9177 8.17547C83.048 8.16503 83.1614 8.08261 83.2116 7.96198L84.6513 4.50057Z" fill="#FEC84B"/>
<path d="M98.5875 4.50057C98.7066 4.21443 99.1119 4.21443 99.2309 4.50057L100.671 7.96198C100.721 8.08261 100.834 8.16503 100.964 8.17547L104.701 8.47506C105.01 8.49982 105.135 8.88534 104.9 9.08695L102.053 11.5258C101.954 11.6108 101.91 11.7442 101.941 11.8712L102.811 15.5178C102.883 15.8192 102.555 16.0575 102.29 15.896L99.0908 13.9419C98.9793 13.8738 98.8391 13.8738 98.7276 13.9419L95.5283 15.896C95.2638 16.0575 94.9359 15.8192 95.0078 15.5178L95.8777 11.8712C95.908 11.7442 95.8646 11.6108 95.7654 11.5258L92.9183 9.08695C92.6829 8.88534 92.8082 8.49982 93.1171 8.47506L96.854 8.17547C96.9842 8.16503 97.0977 8.08261 97.1479 7.96198L98.5875 4.50057Z" fill="#F2F4F7"/>
<path d="M98.5875 4.50057C98.7066 4.21443 99.1119 4.21443 99.2309 4.50057L100.671 7.96198C100.721 8.08261 100.834 8.16503 100.964 8.17547L104.701 8.47506C105.01 8.49982 105.135 8.88534 104.9 9.08695L102.053 11.5258C101.954 11.6108 101.91 11.7442 101.941 11.8712L102.811 15.5178C102.883 15.8192 102.555 16.0575 102.29 15.896L99.0908 13.9419C98.9793 13.8738 98.8391 13.8738 98.7276 13.9419L95.5283 15.896C95.2638 16.0575 94.9359 15.8192 95.0078 15.5178L95.8777 11.8712C95.908 11.7442 95.8646 11.6108 95.7654 11.5258L92.9183 9.08695C92.6829 8.88534 92.8082 8.49982 93.1171 8.47506L96.854 8.17547C96.9842 8.16503 97.0977 8.08261 97.1479 7.96198L98.5875 4.50057Z" fill="#FEC84B"/>
<path d="M36.6739 26.7162V25.5092L39.7001 20.7416H40.7407V22.4122H40.1248L38.2171 25.4314V25.488H42.5175V26.7162H36.6739ZM40.1532 27.9904V26.3481L40.1815 25.8136V20.7416H41.6185V27.9904H40.1532Z" fill="white"/>
<path d="M44.2979 28.0824C44.0643 28.0824 43.8637 27.9998 43.6962 27.8347C43.531 27.6671 43.4484 27.4666 43.4484 27.233C43.4484 27.0017 43.531 26.8035 43.6962 26.6383C43.8637 26.4732 44.0643 26.3906 44.2979 26.3906C44.5244 26.3906 44.7226 26.4732 44.8925 26.6383C45.0624 26.8035 45.1473 27.0017 45.1473 27.233C45.1473 27.3887 45.1072 27.5315 45.027 27.6612C44.9491 27.7887 44.8465 27.8913 44.7191 27.9692C44.5916 28.0447 44.4512 28.0824 44.2979 28.0824Z" fill="white"/>
<path d="M48.7833 28.0895C48.2382 28.0895 47.7533 28.001 47.3285 27.824C46.9062 27.6447 46.5746 27.4005 46.3339 27.0914C46.0933 26.7823 45.9729 26.4319 45.9729 26.0402C45.9729 25.7381 46.0414 25.4609 46.1782 25.2084C46.3174 24.9535 46.5062 24.7424 46.7445 24.5748C46.9828 24.4049 47.2495 24.2964 47.5444 24.2492V24.1996C47.1575 24.1218 46.8436 23.9342 46.6029 23.6369C46.3623 23.3372 46.2419 22.9891 46.2419 22.5927C46.2419 22.2175 46.3516 21.8836 46.5711 21.591C46.7905 21.2961 47.0914 21.0648 47.4737 20.8973C47.8583 20.7274 48.2948 20.6425 48.7833 20.6425C49.2717 20.6425 49.7071 20.7274 50.0893 20.8973C50.4739 21.0672 50.776 21.2996 50.9954 21.5946C51.2149 21.8872 51.3258 22.2199 51.3281 22.5927C51.3258 22.9915 51.2031 23.3395 50.96 23.6369C50.717 23.9342 50.4055 24.1218 50.0256 24.1996V24.2492C50.3158 24.2964 50.5789 24.4049 50.8149 24.5748C51.0532 24.7424 51.242 24.9535 51.3812 25.2084C51.5228 25.4609 51.5948 25.7381 51.5971 26.0402C51.5948 26.4319 51.4732 26.7823 51.2326 27.0914C50.9919 27.4005 50.6592 27.6447 50.2344 27.824C49.8121 28.001 49.3283 28.0895 48.7833 28.0895ZM48.7833 26.964C49.0263 26.964 49.2387 26.9203 49.4204 26.833C49.6021 26.7433 49.7436 26.6206 49.8451 26.4649C49.9489 26.3068 50.0008 26.1251 50.0008 25.9198C50.0008 25.7098 49.9477 25.5246 49.8416 25.3641C49.7354 25.2013 49.5914 25.0739 49.4097 24.9819C49.228 24.8875 49.0192 24.8403 48.7833 24.8403C48.5496 24.8403 48.3408 24.8875 48.1568 24.9819C47.9727 25.0739 47.8276 25.2013 47.7214 25.3641C47.6176 25.5246 47.5657 25.7098 47.5657 25.9198C47.5657 26.1251 47.6164 26.3068 47.7179 26.4649C47.8193 26.6206 47.9621 26.7433 48.1462 26.833C48.3302 26.9203 48.5426 26.964 48.7833 26.964ZM48.7833 23.7253C48.9862 23.7253 49.1667 23.684 49.3248 23.6015C49.4829 23.5189 49.6068 23.4044 49.6964 23.2581C49.7861 23.1118 49.8309 22.9431 49.8309 22.752C49.8309 22.5632 49.7861 22.398 49.6964 22.2565C49.6068 22.1125 49.4841 22.0004 49.3283 21.9202C49.1726 21.8376 48.9909 21.7963 48.7833 21.7963C48.578 21.7963 48.3963 21.8376 48.2382 21.9202C48.0801 22.0004 47.9562 22.1125 47.8665 22.2565C47.7792 22.398 47.7356 22.5632 47.7356 22.752C47.7356 22.9431 47.7804 23.1118 47.8701 23.2581C47.9597 23.4044 48.0836 23.5189 48.2417 23.6015C48.3998 23.684 48.5803 23.7253 48.7833 23.7253Z" fill="white"/>
<path d="M56.287 25.5985L55.8616 25.7189C55.8349 25.648 55.7954 25.5791 55.7432 25.5122C55.6924 25.444 55.6228 25.3878 55.5345 25.3437C55.4462 25.2995 55.3332 25.2775 55.1954 25.2775C55.0068 25.2775 54.8496 25.3209 54.7239 25.4079C54.5994 25.4935 54.5372 25.6025 54.5372 25.735C54.5372 25.8527 54.5801 25.9457 54.6657 26.0139C54.7513 26.0821 54.8851 26.139 55.067 26.1845L55.5245 26.2968C55.8001 26.3637 56.0054 26.466 56.1405 26.6038C56.2756 26.7403 56.3432 26.9162 56.3432 27.1316C56.3432 27.3082 56.2924 27.466 56.1907 27.6051C56.0904 27.7443 55.9499 27.854 55.7693 27.9342C55.5887 28.0145 55.3787 28.0546 55.1392 28.0546C54.8249 28.0546 54.5647 27.9864 54.3587 27.8499C54.1526 27.7135 54.0222 27.5142 53.9674 27.252L54.4168 27.1396C54.4597 27.3055 54.5406 27.4299 54.6596 27.5128C54.78 27.5958 54.9372 27.6372 55.1312 27.6372C55.3519 27.6372 55.5272 27.5904 55.6569 27.4968C55.788 27.4018 55.8536 27.2881 55.8536 27.1557C55.8536 27.0486 55.8161 26.959 55.7412 26.8868C55.6663 26.8132 55.5512 26.7583 55.3961 26.7222L54.8824 26.6018C54.6001 26.5349 54.3928 26.4313 54.2603 26.2908C54.1292 26.149 54.0637 25.9718 54.0637 25.7591C54.0637 25.5851 54.1125 25.4313 54.2102 25.2975C54.3092 25.1638 54.4436 25.0587 54.6135 24.9825C54.7847 24.9062 54.9787 24.8681 55.1954 24.8681C55.5004 24.8681 55.7399 24.935 55.9138 25.0688C56.089 25.2026 56.2134 25.3791 56.287 25.5985Z" fill="white"/>
<path d="M58.3965 24.9083V25.3096H56.7992V24.9083H58.3965ZM57.2647 24.1698H57.7383V27.1075C57.7383 27.2413 57.7577 27.3416 57.7965 27.4085C57.8366 27.474 57.8874 27.5182 57.949 27.5409C58.0118 27.5623 58.0781 27.573 58.1476 27.573C58.1998 27.573 58.2426 27.5704 58.2761 27.565C58.3095 27.5583 58.3363 27.553 58.3563 27.5489L58.4526 27.9743C58.4205 27.9864 58.3757 27.9984 58.3182 28.0105C58.2607 28.0238 58.1878 28.0305 58.0995 28.0305C57.9657 28.0305 57.8346 28.0018 57.7062 27.9442C57.5791 27.8867 57.4734 27.7991 57.3891 27.6814C57.3062 27.5637 57.2647 27.4152 57.2647 27.2359V24.1698Z" fill="white"/>
<path d="M60.0158 28.0626C59.8205 28.0626 59.6432 28.0259 59.484 27.9523C59.3248 27.8774 59.1984 27.7697 59.1048 27.6292C59.0111 27.4874 58.9643 27.3162 58.9643 27.1155C58.9643 26.9389 58.9991 26.7958 59.0687 26.6861C59.1382 26.5751 59.2312 26.4881 59.3476 26.4252C59.464 26.3624 59.5924 26.3156 59.7329 26.2848C59.8747 26.2527 60.0171 26.2273 60.1603 26.2085C60.3475 26.1845 60.4994 26.1664 60.6158 26.1544C60.7335 26.141 60.8191 26.1189 60.8726 26.0881C60.9275 26.0574 60.9549 26.0039 60.9549 25.9276V25.9116C60.9549 25.7136 60.9007 25.5597 60.7923 25.45C60.6853 25.3403 60.5228 25.2855 60.3047 25.2855C60.0787 25.2855 59.9014 25.335 59.773 25.434C59.6446 25.533 59.5543 25.6387 59.5021 25.751L59.0526 25.5905C59.1329 25.4032 59.2399 25.2574 59.3737 25.1531C59.5088 25.0474 59.6559 24.9738 59.8151 24.9323C59.9757 24.8895 60.1335 24.8681 60.2887 24.8681C60.3877 24.8681 60.5014 24.8802 60.6298 24.9042C60.7596 24.927 60.8846 24.9745 61.005 25.0467C61.1268 25.1189 61.2278 25.228 61.308 25.3738C61.3883 25.5196 61.4284 25.7149 61.4284 25.9597V27.9904H60.9549V27.573H60.9308C60.8987 27.6399 60.8452 27.7115 60.7703 27.7877C60.6954 27.864 60.5957 27.9289 60.4713 27.9824C60.3469 28.0359 60.195 28.0626 60.0158 28.0626ZM60.088 27.6372C60.2753 27.6372 60.4332 27.6005 60.5616 27.5269C60.6913 27.4533 60.789 27.3583 60.8545 27.2419C60.9214 27.1256 60.9549 27.0031 60.9549 26.8747V26.4413C60.9348 26.4654 60.8907 26.4875 60.8224 26.5075C60.7556 26.5262 60.678 26.543 60.5897 26.5577C60.5027 26.5711 60.4178 26.5831 60.3348 26.5938C60.2532 26.6032 60.187 26.6112 60.1362 26.6179C60.0131 26.6339 59.8981 26.66 59.791 26.6961C59.6854 26.7309 59.5998 26.7838 59.5342 26.8547C59.47 26.9242 59.4379 27.0192 59.4379 27.1396C59.4379 27.3041 59.4987 27.4285 59.6205 27.5128C59.7436 27.5958 59.8994 27.6372 60.088 27.6372Z" fill="white"/>
<path d="M62.2928 27.9904V24.9083H62.7503V25.3738H62.7824C62.8386 25.2213 62.9402 25.0975 63.0874 25.0026C63.2346 24.9076 63.4004 24.8601 63.585 24.8601C63.6198 24.8601 63.6633 24.8608 63.7155 24.8621C63.7676 24.8634 63.8071 24.8654 63.8339 24.8681V25.3497C63.8178 25.3457 63.781 25.3397 63.7235 25.3316C63.6673 25.3223 63.6078 25.3176 63.5449 25.3176C63.3951 25.3176 63.2613 25.349 63.1436 25.4119C63.0272 25.4734 62.9349 25.5591 62.8667 25.6688C62.7998 25.7771 62.7663 25.9009 62.7663 26.04V27.9904H62.2928Z" fill="white"/>
<path d="M66.5784 25.5985L66.153 25.7189C66.1262 25.648 66.0868 25.5791 66.0346 25.5122C65.9838 25.444 65.9142 25.3878 65.8259 25.3437C65.7376 25.2995 65.6246 25.2775 65.4868 25.2775C65.2982 25.2775 65.141 25.3209 65.0152 25.4079C64.8908 25.4935 64.8286 25.6025 64.8286 25.735C64.8286 25.8527 64.8714 25.9457 64.9571 26.0139C65.0427 26.0821 65.1764 26.139 65.3584 26.1845L65.8159 26.2968C66.0915 26.3637 66.2968 26.466 66.4319 26.6038C66.567 26.7403 66.6346 26.9162 66.6346 27.1316C66.6346 27.3082 66.5837 27.466 66.4821 27.6051C66.3817 27.7443 66.2413 27.854 66.0607 27.9342C65.8801 28.0145 65.6701 28.0546 65.4306 28.0546C65.1162 28.0546 64.8561 27.9864 64.65 27.8499C64.444 27.7135 64.3136 27.5142 64.2588 27.252L64.7082 27.1396C64.751 27.3055 64.832 27.4299 64.951 27.5128C65.0714 27.5958 65.2286 27.6372 65.4226 27.6372C65.6433 27.6372 65.8186 27.5904 65.9483 27.4968C66.0794 27.4018 66.145 27.2881 66.145 27.1557C66.145 27.0486 66.1075 26.959 66.0326 26.8868C65.9577 26.8132 65.8426 26.7583 65.6875 26.7222L65.1738 26.6018C64.8915 26.5349 64.6842 26.4313 64.5517 26.2908C64.4206 26.149 64.3551 25.9718 64.3551 25.7591C64.3551 25.5851 64.4039 25.4313 64.5016 25.2975C64.6005 25.1638 64.735 25.0587 64.9049 24.9825C65.0761 24.9062 65.2701 24.8681 65.4868 24.8681C65.7918 24.8681 66.0313 24.935 66.2052 25.0688C66.3804 25.2026 66.5048 25.3791 66.5784 25.5985Z" fill="white"/>
<path d="M68.0537 27.4286L68.0216 27.6453C67.9989 27.7978 67.9641 27.961 67.9173 28.1349C67.8718 28.3088 67.8243 28.4727 67.7748 28.6265C67.7253 28.7803 67.6845 28.9027 67.6524 28.9937H67.2912C67.3086 28.9081 67.3314 28.7951 67.3595 28.6546C67.3876 28.5141 67.4156 28.3569 67.4437 28.183C67.4732 28.0105 67.4972 27.8339 67.516 27.6533L67.5401 27.4286H68.0537Z" fill="white"/>
<path d="M71.9531 28.0466C71.6441 28.0466 71.3692 27.9964 71.1284 27.8961C70.8889 27.7944 70.701 27.656 70.5645 27.4807C70.4281 27.3055 70.3598 27.1068 70.3598 26.8848C70.3598 26.7135 70.3986 26.5563 70.4762 26.4132C70.5552 26.2687 70.6622 26.149 70.7973 26.054C70.9324 25.9577 71.0836 25.8962 71.2508 25.8694V25.8413C71.0314 25.7972 70.8535 25.6908 70.717 25.5223C70.5806 25.3524 70.5123 25.1551 70.5123 24.9303C70.5123 24.7176 70.5746 24.5283 70.699 24.3625C70.8234 24.1952 70.9939 24.0641 71.2106 23.9692C71.4287 23.8728 71.6762 23.8247 71.9531 23.8247C72.23 23.8247 72.4768 23.8728 72.6935 23.9692C72.9116 24.0655 73.0828 24.1972 73.2072 24.3645C73.3316 24.5303 73.3945 24.719 73.3958 24.9303C73.3945 25.1564 73.3249 25.3537 73.1872 25.5223C73.0494 25.6908 72.8728 25.7972 72.6574 25.8413V25.8694C72.822 25.8962 72.9711 25.9577 73.1049 26.054C73.24 26.149 73.347 26.2687 73.4259 26.4132C73.5062 26.5563 73.547 26.7135 73.5483 26.8848C73.547 27.1068 73.4781 27.3055 73.3417 27.4807C73.2052 27.656 73.0166 27.7944 72.7758 27.8961C72.5363 27.9964 72.2621 28.0466 71.9531 28.0466ZM71.9531 27.4085C72.0909 27.4085 72.2113 27.3837 72.3143 27.3342C72.4173 27.2834 72.4976 27.2138 72.5551 27.1256C72.6139 27.0359 72.6434 26.9329 72.6434 26.8165C72.6434 26.6975 72.6133 26.5925 72.5531 26.5015C72.4929 26.4092 72.4113 26.337 72.3083 26.2848C72.2053 26.2313 72.0869 26.2045 71.9531 26.2045C71.8207 26.2045 71.7023 26.2313 71.5979 26.2848C71.4936 26.337 71.4113 26.4092 71.3511 26.5015C71.2923 26.5925 71.2628 26.6975 71.2628 26.8165C71.2628 26.9329 71.2916 27.0359 71.3491 27.1256C71.4066 27.2138 71.4876 27.2834 71.5919 27.3342C71.6963 27.3837 71.8166 27.4085 71.9531 27.4085ZM71.9531 25.5724C72.0681 25.5724 72.1705 25.549 72.2601 25.5022C72.3497 25.4554 72.42 25.3905 72.4708 25.3076C72.5216 25.2246 72.5471 25.129 72.5471 25.0206C72.5471 24.9136 72.5216 24.82 72.4708 24.7397C72.42 24.6581 72.3504 24.5946 72.2621 24.5491C72.1738 24.5022 72.0708 24.4788 71.9531 24.4788C71.8367 24.4788 71.7337 24.5022 71.6441 24.5491C71.5545 24.5946 71.4842 24.6581 71.4334 24.7397C71.3839 24.82 71.3591 24.9136 71.3591 25.0206C71.3591 25.129 71.3846 25.2246 71.4354 25.3076C71.4862 25.3905 71.5564 25.4554 71.6461 25.5022C71.7357 25.549 71.838 25.5724 71.9531 25.5724Z" fill="white"/>
<path d="M75.6749 28.0466C75.3752 28.0466 75.1083 27.9951 74.8742 27.8921C74.6414 27.7877 74.4575 27.6446 74.3224 27.4627C74.1886 27.2794 74.1197 27.068 74.1157 26.8286H74.9906C74.9959 26.9289 75.0287 27.0172 75.0889 27.0934C75.1505 27.1684 75.2321 27.2266 75.3337 27.268C75.4354 27.3095 75.5498 27.3302 75.6769 27.3302C75.8093 27.3302 75.9263 27.3068 76.028 27.26C76.1297 27.2132 76.2093 27.1483 76.2668 27.0654C76.3243 26.9824 76.3531 26.8868 76.3531 26.7784C76.3531 26.6687 76.3223 26.5717 76.2608 26.4875C76.2006 26.4018 76.1136 26.3349 75.9999 26.2868C75.8875 26.2386 75.7538 26.2146 75.5986 26.2146H75.2153V25.5765H75.5986C75.7297 25.5765 75.8454 25.5537 75.9457 25.5082C76.0474 25.4627 76.1263 25.3999 76.1825 25.3196C76.2387 25.238 76.2668 25.143 76.2668 25.0347C76.2668 24.9317 76.2421 24.8414 76.1926 24.7638C76.1444 24.6848 76.0762 24.6233 75.9879 24.5792C75.9009 24.535 75.7993 24.5129 75.6829 24.5129C75.5651 24.5129 75.4575 24.5344 75.3598 24.5772C75.2622 24.6186 75.1839 24.6782 75.125 24.7557C75.0662 24.8333 75.0347 24.9243 75.0307 25.0286H74.198C74.202 24.7919 74.2696 24.5832 74.4007 24.4026C74.5318 24.222 74.7083 24.0809 74.9304 23.9792C75.1538 23.8762 75.406 23.8247 75.6869 23.8247C75.9705 23.8247 76.2186 23.8762 76.4313 23.9792C76.644 24.0822 76.8092 24.2213 76.927 24.3966C77.046 24.5705 77.1049 24.7658 77.1036 24.9825C77.1049 25.2126 77.0333 25.4046 76.8888 25.5584C76.7457 25.7122 76.5591 25.8099 76.329 25.8514V25.8835C76.6313 25.9223 76.8614 26.0273 77.0193 26.1985C77.1785 26.3684 77.2574 26.5811 77.2561 26.8366C77.2574 27.0707 77.1898 27.2787 77.0534 27.4607C76.9183 27.6426 76.7317 27.7857 76.4935 27.8901C76.2554 27.9944 75.9825 28.0466 75.6749 28.0466Z" fill="white"/>
<path d="M79.6685 23.8809V27.9904H78.7996V24.7056H78.7756L77.8345 25.2955V24.525L78.8518 23.8809H79.6685Z" fill="white"/>
<path d="M82.3348 27.9904V24.9083H82.7923V25.3738H82.8244C82.8806 25.2213 82.9822 25.0975 83.1294 25.0026C83.2766 24.9076 83.4424 24.8601 83.627 24.8601C83.6618 24.8601 83.7053 24.8608 83.7575 24.8621C83.8096 24.8634 83.8491 24.8654 83.8759 24.8681V25.3497C83.8598 25.3457 83.823 25.3397 83.7655 25.3316C83.7093 25.3223 83.6498 25.3176 83.5869 25.3176C83.4371 25.3176 83.3033 25.349 83.1856 25.4119C83.0692 25.4734 82.9769 25.5591 82.9087 25.6688C82.8418 25.7771 82.8083 25.9009 82.8083 26.04V27.9904H82.3348Z" fill="white"/>
<path d="M85.6357 28.0546C85.3387 28.0546 85.0825 27.9891 84.8671 27.858C84.6531 27.7255 84.4879 27.5409 84.3715 27.3041C84.2564 27.066 84.1989 26.7891 84.1989 26.4734C84.1989 26.1577 84.2564 25.8794 84.3715 25.6387C84.4879 25.3965 84.6497 25.2079 84.8571 25.0728C85.0658 24.9363 85.3092 24.8681 85.5875 24.8681C85.748 24.8681 85.9065 24.8949 86.0631 24.9484C86.2196 25.0019 86.362 25.0888 86.4905 25.2092C86.6189 25.3283 86.7212 25.4862 86.7975 25.6828C86.8737 25.8794 86.9118 26.1216 86.9118 26.4092V26.6099H84.536V26.2005H86.4303C86.4303 26.0266 86.3955 25.8714 86.3259 25.735C86.2577 25.5985 86.16 25.4908 86.033 25.4119C85.9072 25.333 85.7587 25.2935 85.5875 25.2935C85.3989 25.2935 85.2357 25.3403 85.0979 25.434C84.9614 25.5263 84.8564 25.6467 84.7828 25.7952C84.7093 25.9437 84.6725 26.1029 84.6725 26.2727V26.5456C84.6725 26.7784 84.7126 26.9757 84.7929 27.1376C84.8745 27.2981 84.9875 27.4205 85.132 27.5048C85.2765 27.5877 85.4444 27.6292 85.6357 27.6292C85.7601 27.6292 85.8724 27.6118 85.9728 27.577C86.0744 27.5409 86.162 27.4874 86.2356 27.4165C86.3092 27.3443 86.3661 27.2546 86.4062 27.1476L86.8637 27.2761C86.8155 27.4312 86.7346 27.5677 86.6209 27.6854C86.5072 27.8018 86.3667 27.8927 86.1995 27.9583C86.0323 28.0225 85.8443 28.0546 85.6357 28.0546Z" fill="white"/>
<path d="M90.0587 24.9083L88.919 27.9904H88.4374L87.2976 24.9083H87.8113L88.6621 27.3643H88.6942L89.545 24.9083H90.0587Z" fill="white"/>
<path d="M90.6838 27.9904V24.9083H91.1573V27.9904H90.6838ZM90.9246 24.3946C90.8323 24.3946 90.7527 24.3631 90.6858 24.3002C90.6202 24.2374 90.5875 24.1618 90.5875 24.0735C90.5875 23.9852 90.6202 23.9096 90.6858 23.8468C90.7527 23.7839 90.8323 23.7524 90.9246 23.7524C91.0169 23.7524 91.0958 23.7839 91.1613 23.8468C91.2282 23.9096 91.2617 23.9852 91.2617 24.0735C91.2617 24.1618 91.2282 24.2374 91.1613 24.3002C91.0958 24.3631 91.0169 24.3946 90.9246 24.3946Z" fill="white"/>
<path d="M93.3169 28.0546C93.02 28.0546 92.7638 27.9891 92.5484 27.858C92.3344 27.7255 92.1692 27.5409 92.0528 27.3041C91.9377 27.066 91.8802 26.7891 91.8802 26.4734C91.8802 26.1577 91.9377 25.8794 92.0528 25.6387C92.1692 25.3965 92.331 25.2079 92.5384 25.0728C92.7471 24.9363 92.9905 24.8681 93.2688 24.8681C93.4293 24.8681 93.5878 24.8949 93.7443 24.9484C93.9009 25.0019 94.0433 25.0888 94.1718 25.2092C94.3002 25.3283 94.4025 25.4862 94.4788 25.6828C94.555 25.8794 94.5931 26.1216 94.5931 26.4092V26.6099H92.2173V26.2005H94.1116C94.1116 26.0266 94.0768 25.8714 94.0072 25.735C93.939 25.5985 93.8413 25.4908 93.7143 25.4119C93.5885 25.333 93.44 25.2935 93.2688 25.2935C93.0802 25.2935 92.917 25.3403 92.7792 25.434C92.6427 25.5263 92.5377 25.6467 92.4641 25.7952C92.3906 25.9437 92.3538 26.1029 92.3538 26.2727V26.5456C92.3538 26.7784 92.3939 26.9757 92.4742 27.1376C92.5558 27.2981 92.6688 27.4205 92.8133 27.5048C92.9578 27.5877 93.1256 27.6292 93.3169 27.6292C93.4414 27.6292 93.5537 27.6118 93.6541 27.577C93.7557 27.5409 93.8433 27.4874 93.9169 27.4165C93.9905 27.3443 94.0473 27.2546 94.0875 27.1476L94.545 27.2761C94.4968 27.4312 94.4159 27.5677 94.3022 27.6854C94.1885 27.8018 94.048 27.8927 93.8808 27.9583C93.7136 28.0225 93.5256 28.0546 93.3169 28.0546Z" fill="white"/>
<path d="M96.0118 27.9904L95.0727 24.9083H95.5704L96.2366 27.268H96.2687L96.9268 24.9083H97.4325L98.0826 27.26H98.1147L98.7809 24.9083H99.2786L98.3395 27.9904H97.874L97.1997 25.6226H97.1516L96.4774 27.9904H96.0118Z" fill="white"/>
<path d="M102.088 25.5985L101.662 25.7189C101.636 25.648 101.596 25.5791 101.544 25.5122C101.493 25.444 101.424 25.3878 101.335 25.3437C101.247 25.2995 101.134 25.2775 100.996 25.2775C100.808 25.2775 100.65 25.3209 100.525 25.4079C100.4 25.4935 100.338 25.6025 100.338 25.735C100.338 25.8527 100.381 25.9457 100.466 26.0139C100.552 26.0821 100.686 26.139 100.868 26.1845L101.325 26.2968C101.601 26.3637 101.806 26.466 101.941 26.6038C102.076 26.7403 102.144 26.9162 102.144 27.1316C102.144 27.3082 102.093 27.466 101.992 27.6051C101.891 27.7443 101.751 27.854 101.57 27.9342C101.39 28.0145 101.18 28.0546 100.94 28.0546C100.626 28.0546 100.365 27.9864 100.159 27.8499C99.9535 27.7135 99.823 27.5142 99.7682 27.252L100.218 27.1396C100.26 27.3055 100.341 27.4299 100.46 27.5128C100.581 27.5958 100.738 27.6372 100.932 27.6372C101.153 27.6372 101.328 27.5904 101.458 27.4968C101.589 27.4018 101.654 27.2881 101.654 27.1557C101.654 27.0486 101.617 26.959 101.542 26.8868C101.467 26.8132 101.352 26.7583 101.197 26.7222L100.683 26.6018C100.401 26.5349 100.194 26.4313 100.061 26.2908C99.9301 26.149 99.8645 25.9718 99.8645 25.7591C99.8645 25.5851 99.9133 25.4313 100.011 25.2975C100.11 25.1638 100.244 25.0587 100.414 24.9825C100.586 24.9062 100.78 24.8681 100.996 24.8681C101.301 24.8681 101.541 24.935 101.715 25.0688C101.89 25.2026 102.014 25.3791 102.088 25.5985Z" fill="white"/>
</svg>
